<svg xmlns="http://www.w3.org/2000/svg" xmlns:xlink="http://www.w3.org/1999/xlink" id="Layer_1" x="0px" y="0px" viewBox="0 0 1697.3 1364.6" style="enable-background:new 0 0 1697.3 1364.6;" xml:space="preserve">
<style type="text/css">
	.st0{fill:#EAEDF8;}
	.st1{fill:#FFFFFF;}
	.st2{clip-path:url(#SVGID_00000114044679982532455480000006935305153591677869_);fill:#251739;}
	.st3{clip-path:url(#SVGID_00000114044679982532455480000006935305153591677869_);fill:#F08461;}
	.st4{clip-path:url(#SVGID_00000114044679982532455480000006935305153591677869_);fill:#E30613;}
	.st5{clip-path:url(#SVGID_00000114044679982532455480000006935305153591677869_);fill:#4A4F6E;}
	.st6{clip-path:url(#SVGID_00000114044679982532455480000006935305153591677869_);fill:#F18968;}
	.st7{clip-path:url(#SVGID_00000114044679982532455480000006935305153591677869_);}
	.st8{fill:#E66543;}
	.st9{fill:#F18968;}
	.st10{fill:#251739;}
	.st11{opacity:0.19;clip-path:url(#SVGID_00000114044679982532455480000006935305153591677869_);fill:#020203;}
	.st12{clip-path:url(#SVGID_00000114044679982532455480000006935305153591677869_);fill:#FFFFFF;}
	.st13{clip-path:url(#SVGID_00000114044679982532455480000006935305153591677869_);fill:#8F3333;}
	.st14{fill:#9FA3BF;}
	.st15{fill:#31354F;}
	.st16{fill:#606487;}
	.st17{fill:#4A4F6E;}
	.st18{fill:#E30613;}
	.st19{fill:none;stroke:#4A4F6E;stroke-width:5;stroke-miterlimit:10;}
</style>
<g>
	<g>
		<g>
			<path class="st0" d="M1418,753.9c-1.4,2.7-2.9,5.4-4.5,8.1l-0.1,0.2l-53.5,92.7l-4.8,8.4l-55.6,96.4l-4.6,8l-37.9,65.6     c-20.1,34.7-47.4,63.7-79.4,85.6c-3.1,2.1-6.2,4.2-9.4,6.1c-40.8,25.3-88.4,39.3-138.1,39.3H716.5c-65.6,0-127.8-24.5-175.2-67.1     c-2.6-2.4-5.2-4.8-7.7-7.3c-17-16.5-31.9-35.5-44-56.6l-41.9-72.6l-4.9-8.5l-64.3-111.4l-5.6-9.8L332.9,762     c-5.5-9.5-10.3-19.2-14.5-29.2c-1.7-3.9-3.2-7.8-4.6-11.8c-26.4-72.2-20.1-153.2,19.1-221.1l19.5-33.7l5.2-8.9l53.1-92l4.8-8.4     l61-105.6l4.8-8.3l8.3-14.4c23.4-40.5,56.7-73.3,95.9-95.9c34.2-19.8,72.9-31.8,113.4-34.5c5.3-0.4,10.6-0.6,16-0.6     c0.5,0,1.1,0,1.7,0h313.3c61.9,0,120.7,21.8,166.9,60.1c2.7,2.3,5.4,4.6,8.1,7c20.3,18.2,37.9,39.7,52,64l61.2,106l4.7,8.1     l58,100.5l5.3,9.1l27.5,47.6c8.9,15.4,16.1,31.4,21.6,47.9c1.1,3.1,2,6.3,3,9.4C1457.1,622.2,1450.4,692.9,1418,753.9z"></path>
		</g>
		<g>
			<path class="st1" d="M1322.7,342.7c-37.7,13.8-75.6,25.3-113.5,34.5c-73.8,17.8-148,26.7-221.8,26.7     c-53.2,0-106.1-4.6-158.7-13.9c-140.1-24.7-257.6-78.2-352.2-138.8l4.8-8.3c93.8,60.2,210.3,113.2,349.1,137.7     c162.7,28.7,326,13.2,487.7-46.1L1322.7,342.7z"></path>
		</g>
		<g>
			<path class="st1" d="M1299.3,959.7l-4.6,8c-101-49.9-220.6-88-358.4-98c-200.5-14.6-369.6,36.4-488.7,91l-4.9-8.5     c34-15.7,68.9-29.6,104.5-41.6c127.6-43,258.7-60,389.8-50.5c103.8,7.5,205.5,31.8,302.2,72.1     C1259.4,940.7,1279.5,949.8,1299.3,959.7z"></path>
		</g>
		<g>
			<path class="st1" d="M1177.4,1118.9c-3.1,2.1-6.2,4.2-9.4,6.1c-49.8-23-101.6-41-154.7-53.5c-188.2-44.7-353.9-14.8-471.9,25.7     c-2.6-2.4-5.2-4.8-7.7-7.3c33.4-11.6,67.6-21.4,101.7-29c128.3-28.6,256.3-28.2,380.2,1.2     C1071.1,1075.4,1125.3,1094.4,1177.4,1118.9z"></path>
		</g>
		<g>
			<path class="st1" d="M1204.9,164.5c-48.3,16.7-97.1,27.3-145.1,31.6c-16.4,1.5-32.8,2.2-49.2,2.2c-46.4,0-92.1-5.9-136.6-17.7     c-61.8-16.4-121.2-44.5-175.1-82.5c5.3-0.4,10.6-0.6,16-0.6c50.2,33.7,104.9,58.7,161.6,73.8c121,32.2,232.2,15.9,320.3-13.8     C1199.5,159.8,1202.2,162.2,1204.9,164.5z"></path>
		</g>
		<g>
			<path class="st1" d="M1122.9,745.7c63.7,37.8,144,74.8,236.9,109.3l-4.8,8.4c-92.8-34.6-173.1-71.6-236.9-109.5     C1016.6,693.7,966.8,637,974.2,590c3.4-21.8,19.5-42.2,47.6-60.4c26-16.8,62.6-32,108.5-45c67.3-19.1,152.7-33.1,250.4-41.4     l5.3,9.1c-237,19.5-391.9,72-402.4,139.1C977,633.7,1026.5,688.4,1122.9,745.7z"></path>
		</g>
		<g>
			<path class="st1" d="M1343.4,699.4c20.1,19.6,45.5,38,74.6,54.5c-1.4,2.7-2.9,5.4-4.5,8.1l-0.1,0.2     c-88.1-49.8-133.4-112.5-121.1-152.4c10.6-34.6,66.8-57.7,142.8-62c1.1,3.1,2,6.3,3,9.4c-72.6,3.7-127.2,24.5-136.7,55.3     C1294.6,634.7,1310.3,667.2,1343.4,699.4z"></path>
		</g>
		<g>
			<path class="st1" d="M847.2,663.7c-4.6,30.8-32.7,61.9-81.2,90c-44.4,25.7-103.2,47.7-169.9,63.7c-66,15.7-133.3,23.9-194.5,23.9     c-7.8,0-15.5-0.1-23.2-0.4l-5.6-9.8c9.2,0.4,18.5,0.6,28,0.6c63.5,0,131.4-8.9,193.1-23.6c64.9-15.5,124.4-37.7,167.4-62.6     c45.9-26.6,72.4-55.3,76.5-83.1c6.6-44.3-41.2-99.7-138.4-160.2c-73.8-46-172.4-92.6-288.7-136.9l4.8-8.4     c116.2,44.3,214.9,91.1,288.9,137.2c48.6,30.2,85.4,59.6,109.5,87.2C839.7,610.9,851,638.6,847.2,663.7z"></path>
		</g>
		<g>
			<path class="st1" d="M477.6,705.9c-23.1,23.8-58.6,37.1-97.9,37.1c-1.8,0-3.6,0-5.5-0.1c-18.6-0.6-37.4-4.1-55.8-10.2     c-1.7-3.9-3.2-7.8-4.6-11.8c19.9,7.5,40.5,11.8,60.7,12.4c38.8,1.2,73.9-11.2,96.2-34.2c39.4-40.5,38.2-110.1,14.2-154     c-23-42.3-71.4-69.3-132.6-79l5.2-8.9c0.9,0.2,1.9,0.3,2.8,0.5c63,11.7,110.3,41.1,133,82.9C518.9,587.6,520,662.3,477.6,705.9z"></path>
		</g>
	</g>
	<g>
		<defs>
			<rect id="SVGID_1_" x="-43.7" y="8.8" width="1570.8" height="1346.2"></rect>
		</defs>
		<clipPath id="SVGID_00000080900873703336926950000017858694342946154378_">
			<use xlink:href="#SVGID_1_" style="overflow:visible;"></use>
		</clipPath>
		<path style="clip-path:url(#SVGID_00000080900873703336926950000017858694342946154378_);fill:#251739;" d="M1262.6,1618.8    l-47,106.9c-3,6.9-0.8,15,5.4,19.4h0c7.2,5,17.1,3.3,22.1-3.9l93.4-133.4l-45.9-28.1L1262.6,1618.8z"></path>
		<path style="clip-path:url(#SVGID_00000080900873703336926950000017858694342946154378_);fill:#F08461;" d="M1302.5,1605.3    l-13.4,19.1c-3.9,5.6-11.7,7-17.3,3l-41.4-29l27.6-39.4l41.4,29C1305.1,1591.9,1306.4,1599.6,1302.5,1605.3z"></path>
		<path style="clip-path:url(#SVGID_00000080900873703336926950000017858694342946154378_);fill:#251739;" d="M766.8,1798.6    l-114.5,22.9c-7.4,1.5-12.8,8-12.8,15.6v0c0,8.8,7.1,15.9,15.9,15.9h162.8l-3.3-53.7L766.8,1798.6z"></path>
		<path style="clip-path:url(#SVGID_00000080900873703336926950000017858694342946154378_);fill:#F08461;" d="M800.8,1823.4h-23.3    c-6.9,0-12.4-5.6-12.4-12.4v-50.6h48.1v50.6C813.2,1817.9,807.6,1823.4,800.8,1823.4z"></path>
		<path style="clip-path:url(#SVGID_00000080900873703336926950000017858694342946154378_);fill:#E30613;" d="M569,538.3    c0,0,38.8,86.5,57,162.8c5.4,22.7,9,44.6,9.3,62.9c0.3,28.5-7.6,48.7-29.5,50.9c-3.4,0.3-6.8,0.1-10-0.7c0,0,0,0,0,0    c-2.8-0.7-5.4-1.7-8.1-3.1c0,0-0.1-0.1-0.2-0.1c-4.9-2.7-9.5-6.6-13.9-11.6c-10-11.3-18.8-27.9-26.4-47.3    C517,675.1,505,555.4,505,555.4C529.2,526.6,569,538.3,569,538.3z"></path>
		<path style="clip-path:url(#SVGID_00000080900873703336926950000017858694342946154378_);fill:#E30613;" d="M826.7,681.7    c0,0-88,86.1-163.4,120.4c-25.2,11.5-48.9,17.2-67.5,12c0,0,0,0,0,0c-2.8-0.8-5.5-1.8-8.1-3.1c0,0-0.1-0.1-0.2-0.1    c-5.2-2.7-9.9-6.5-13.9-11.6c-1.2-1.4-2.2-3-3.3-4.6c-8.8-14.1-3.4-31.3,10.2-49.5c10.9-14.5,27.1-29.5,45.5-44.2    c61.4-48.7,147.9-92.5,147.9-92.5C811.8,597.8,854.5,646.9,826.7,681.7z"></path>
		<path style="clip-path:url(#SVGID_00000080900873703336926950000017858694342946154378_);fill:#E30613;" d="M1117,865.3    c-0.1,0-0.1,0-0.1,0c-2.2,0.6-4.2,1.2-6.3,1.6c-8,1.6-15.4,1.3-21.9-1.3c-2.3-0.9-4.5-2.2-6.6-3.7c-14-10.3-14.8-25.8-7.2-43.7    c6.8-16.2,20.4-34.5,37.2-53c54.5-60.1,142.8-122.3,142.8-122.3s40.2,10.2,46.2,47.4c0,0-75.5,102.5-142.1,151.8    C1144.2,853,1129.9,861.3,1117,865.3z"></path>
		<path style="clip-path:url(#SVGID_00000080900873703336926950000017858694342946154378_);fill:#E30613;" d="M1117,865.3    c-0.1,0-0.1,0-0.1,0c-2.1,0.7-4.2,1.2-6.3,1.6c-6.9,1.2-14.3,0.7-21.9-1.3c-14.5-3.7-30-12.5-45.6-24.4    c-65.6-50-132.6-153.9-132.6-153.9c-20.3-39.6,30.3-78.2,65.4-60.1c0,0,87.9,72.3,136.1,137.9c16.3,22.2,28,43.6,30.2,61.2    c1.4,10.8-0.8,20.1-7.7,27.3C1129.2,859.4,1123.3,863.2,1117,865.3z"></path>
		<path style="clip-path:url(#SVGID_00000080900873703336926950000017858694342946154378_);fill:#4A4F6E;" d="M765.3,1422.1    L765.3,1422.1c-35.3,0-64.5-27.5-66.4-62.8c-8.2-149.2-11.9-302-8.4-414.1h145.6c-4.6,127.7-5.7,276.2-4.3,409.5    C832.3,1391.9,802.4,1422.1,765.3,1422.1z"></path>
		<path style="clip-path:url(#SVGID_00000080900873703336926950000017858694342946154378_);fill:#4A4F6E;" d="M765.3,1293.8    L765.3,1293.8c-38.2,0-68.4,32.1-66.2,70.2c7.7,128.6,18.6,316.5,24.4,398.9h112.7c-4.5-93.9-3.1-286.5-4.6-403.7    C831.1,1323,801.6,1293.8,765.3,1293.8z"></path>
		<path style="clip-path:url(#SVGID_00000080900873703336926950000017858694342946154378_);fill:#4A4F6E;" d="M1000.9,1375.9    L1000.9,1375.9c-34.4,7.6-68.9-12.9-78.4-46.9c-40.3-143.9-76.9-292.3-97.8-402.4L966.9,895c23.1,125.6,54.2,270.9,84.4,400.8    C1059.7,1331.9,1037.1,1367.8,1000.9,1375.9z"></path>
		<path style="clip-path:url(#SVGID_00000080900873703336926950000017858694342946154378_);fill:#4A4F6E;" d="M937.8,1259.3    L937.8,1259.3c-28.2,25.7-29,69.8-1.6,96.5c92.3,89.9,226.9,221.4,286.6,278.5l83.3-75.9c-66.5-66.4-195.2-209.7-275.2-295.4    C1006.1,1236.6,964.6,1234.9,937.8,1259.3z"></path>
		<path style="clip-path:url(#SVGID_00000080900873703336926950000017858694342946154378_);fill:#E30613;" d="M690.5,945.3    c0,0,3.7-295.5,85.2-337.5c46.7-24.1,143.4-17.6,192.7,15.7c49.8,33.6,14.6,321.8,14.6,321.8H690.5z"></path>
		<path style="clip-path:url(#SVGID_00000080900873703336926950000017858694342946154378_);fill:#F18968;" d="M1248.9,656.5    c0,0,0.3-16.6,8-27.7c7.7-11.1,14.3-17.7,15.6-33.5s18.5-11.6,16.7,2.1c-1.8,13.7-7.7,34.9,9.5,31.6c17.2-3.3,38.6-42.8,53.2-18.9    c0,0,13.9-15.2,20-8.3s-6.5,20.7-6.5,20.7s24.4,4-13.8,33.5c0,0,9.1,7.4,2.5,14c-10.6,10.7-42.1,22.9-68.8,25    C1241.6,698.6,1248.9,656.5,1248.9,656.5z"></path>
		<g style="clip-path:url(#SVGID_00000080900873703336926950000017858694342946154378_);">
			<path class="st8" d="M1308.7,643.8l-1-1.7c37.1-21.5,43.2-32.4,43.3-32.5l1.7,0.9C1352.5,610.9,1346.5,621.8,1308.7,643.8z"></path>
		</g>
		<g style="clip-path:url(#SVGID_00000080900873703336926950000017858694342946154378_);">
			<path class="st8" d="M1319.2,656.3l-0.8-1.7c20.7-9.7,46-32.6,46.3-32.9l1.3,1.4C1365.7,623.4,1340.2,646.5,1319.2,656.3z"></path>
		</g>
		<g style="clip-path:url(#SVGID_00000080900873703336926950000017858694342946154378_);">
			<path class="st8" d="M1323.4,670.7l-0.8-1.7c12.6-5.8,28.3-13.8,28.4-13.9l0.9,1.7C1351.8,656.9,1336,664.9,1323.4,670.7z"></path>
		</g>
		<g style="clip-path:url(#SVGID_00000080900873703336926950000017858694342946154378_);">
			<path class="st9" d="M566.6,544.7c0,0,3.6-15.6-0.7-28.4c-4.3-12.8-8.6-21-6.2-36.2s-13.8-16.7-15.4-3.3s-1.2,35-15.8,26.5     s-24.6-52.1-43.1-34.5c0,0-8.9-18.6-15.9-14.1s1,21.4,1,21.4s-22.7-3.9,4.6,35.6c0,0-9.8,4-5.5,12.3c7,13.3,32.3,34.6,55.6,45.1     C563.4,586.2,566.6,544.7,566.6,544.7z"></path>
			<g>
				<path class="st8" d="M516.1,513.9c-28.6-32.4-31.4-44.4-31.6-44.9l1.9-0.4c0,0.1,3,12.2,31.1,44.1L516.1,513.9z"></path>
			</g>
			<g>
				<path class="st8" d="M503.8,522.3c-16.4-15.8-33.9-45.4-34-45.7l1.7-1c0.2,0.3,17.5,29.7,33.7,45.3L503.8,522.3z"></path>
			</g>
			<g>
				<path class="st8" d="M496.7,534.4c-9.9-9.4-22.1-21.9-22.2-22l1.4-1.3c0.1,0.1,12.3,12.6,22.2,21.9L496.7,534.4z"></path>
			</g>
		</g>
		<g style="clip-path:url(#SVGID_00000080900873703336926950000017858694342946154378_);">
			<path class="st10" d="M706,784.3l-3.9-1.2c0.5-1.7,12.4-41.2,16.5-49.4l3.7,1.8C718.2,743.5,706.1,783.9,706,784.3z"></path>
		</g>
		<g style="clip-path:url(#SVGID_00000080900873703336926950000017858694342946154378_);">
			
				<rect x="628" y="701.7" transform="matrix(0.9831 -0.1828 0.1828 0.9831 -121.4544 127.3516)" class="st10" width="4.1" height="41.5"></rect>
		</g>
		<g style="clip-path:url(#SVGID_00000080900873703336926950000017858694342946154378_);">
			
				<rect x="1112.8" y="765" transform="matrix(0.9878 -0.1559 0.1559 0.9878 -108.5048 183.4021)" class="st10" width="4.1" height="36.7"></rect>
		</g>
		<polygon style="clip-path:url(#SVGID_00000080900873703336926950000017858694342946154378_);fill:#4A4F6E;" points="764.1,1093.7     889.9,1088 849.9,962.2 789.8,953.6   "></polygon>
		<g style="clip-path:url(#SVGID_00000080900873703336926950000017858694342946154378_);">
			<polygon class="st10" points="841.1,1032.8 804.7,1029.8 815,946.2 819,946.7 809.3,1026.1 841.5,1028.8    "></polygon>
		</g>
		<g style="clip-path:url(#SVGID_00000080900873703336926950000017858694342946154378_);">
			<polygon class="st10" points="691.2,1074.3 688.4,1071.2 703.8,1057.6 709.4,945 713.5,945.2 707.8,1059.5    "></polygon>
		</g>
		<g style="clip-path:url(#SVGID_00000080900873703336926950000017858694342946154378_);">
			<polygon class="st10" points="1000.7,1072.8 975.8,1064.8 947,946.5 950.9,945.5 979.2,1061.6 1002,1068.9    "></polygon>
		</g>
		<polygon style="clip-path:url(#SVGID_00000080900873703336926950000017858694342946154378_);fill:#251739;" points="723.5,1763     719.8,1726.8 831.3,1722.5 836.1,1763   "></polygon>
		<polygon style="clip-path:url(#SVGID_00000080900873703336926950000017858694342946154378_);fill:#251739;" points="    1191.4,1603.9 1222.7,1634.3 1306,1558.5 1274.3,1528.1   "></polygon>
		<g style="clip-path:url(#SVGID_00000080900873703336926950000017858694342946154378_);">
			<path class="st10" d="M862.6,664.7c-3.2,0-6.6-0.2-10.1-0.5c-50-4.9-45.7-72-45.7-72.7l4.1,0.3c0,0.6-4,63.8,42,68.3     c48,4.7,61.4-24.6,74.1-63.4l3.9,1.3C919,634.4,905.5,664.7,862.6,664.7z"></path>
		</g>
		<g style="clip-path:url(#SVGID_00000080900873703336926950000017858694342946154378_);">
			
				<rect x="990.4" y="761.8" transform="matrix(0.9934 -0.1148 0.1148 0.9934 -82.8394 119.0621)" class="st10" width="4.1" height="34.1"></rect>
		</g>
		<path style="clip-path:url(#SVGID_00000080900873703336926950000017858694342946154378_);fill:#F18968;" d="M859,647.7    c-29.9,0-43.5-34.9-35.5-42.9c2.4-2.4,4.3-5.6,5.6-8.7c0,0,0,0,0,0c3.2-7.4,4.1-15.2,4.1-15.2s0,0,0,0l55.2-49.3    c-3,31.4,10.4,53.4,15.3,69.1C908.7,616.4,893,647.7,859,647.7z"></path>
		<path style="opacity:0.19;clip-path:url(#SVGID_00000080900873703336926950000017858694342946154378_);fill:#020203;" d="    M878.8,568.7C863,599,830.1,596,829.2,596.1c3.2-7.4,4.1-15.2,4.1-15.2s0,0,0,0C834.8,580,893.7,540.3,878.8,568.7z"></path>
		<path style="clip-path:url(#SVGID_00000080900873703336926950000017858694342946154378_);fill:#251739;" d="M943.2,475.3    c0,0-2.4,28.6-44,58.1c-43.6,30.9,6-64.1,6-64.1L943.2,475.3z"></path>
		<path style="clip-path:url(#SVGID_00000080900873703336926950000017858694342946154378_);fill:#F18968;" d="M829.5,458.1    c0,0-5.9,24.7-13.5,52.4C805.1,550,804.1,582,844.4,582c67.7,0,63.2-112.4,63.2-112.4L829.5,458.1z"></path>
		<path style="clip-path:url(#SVGID_00000080900873703336926950000017858694342946154378_);fill:#251739;" d="M885.9,482.3    c0,0-101.6-2.3-87.6-71s53.8,16.4,74.5,16.4c24.2,0,90.2,3.5,66,61.2C932.5,504,922.5,484.7,885.9,482.3z"></path>
		
			<circle style="clip-path:url(#SVGID_00000080900873703336926950000017858694342946154378_);fill:#F18968;" cx="900.4" cy="542.6" r="20.4"></circle>
		<path style="clip-path:url(#SVGID_00000080900873703336926950000017858694342946154378_);fill:#251739;" d="M904.9,502.8    c0,0-11.1,27-24.9,35.3c-13.9,8.3-36.7-13.9-70-7.6c0,0-2.8,36.7,9,56.8c0,0,35.3,6.9,56.1-15.9c20.8-22.9,35.3-47.8,35.3-47.8    L904.9,502.8z"></path>
		<path style="clip-path:url(#SVGID_00000080900873703336926950000017858694342946154378_);fill:#FFFFFF;" d="M821.7,542.2l21.5,2.8    c0,0-2.1,19.1-13.9,17.3C817.6,560.6,821.7,542.2,821.7,542.2z"></path>
		
			<circle style="clip-path:url(#SVGID_00000080900873703336926950000017858694342946154378_);fill:#8F3333;" cx="856.1" cy="500.2" r="3.9"></circle>
		
			<circle style="clip-path:url(#SVGID_00000080900873703336926950000017858694342946154378_);fill:#8F3333;" cx="831.8" cy="494.8" r="3.9"></circle>
	</g>
	<g>
		<g>
			<path class="st14" d="M1318.1,1367.2c-48.8-72.6-99.6-153-89.7-160.9c3.6-2.9,14,4.7,21.8,10.5c57.9,42.5,72,118.7,75.8,146.3     C1323.4,1364.4,1320.8,1365.8,1318.1,1367.2z"></path>
		</g>
		<g>
			<path class="st15" d="M1319.6,1351.3c-0.4,0-0.7-0.2-0.9-0.6c-7.4-17-15.9-33.8-25.1-49.8c-13.5-23.5-29.1-46.1-46.4-67.1     c-0.3-0.4-0.3-1,0.1-1.3c0.4-0.3,1-0.3,1.3,0.1c17.3,21.1,32.9,43.8,46.5,67.4c9.3,16.1,17.8,32.9,25.2,50c0.2,0.5,0,1-0.5,1.2     C1319.8,1351.3,1319.7,1351.3,1319.6,1351.3z"></path>
		</g>
		<g>
			<path class="st14" d="M1338.3,1368.2c47-73.8,95.7-155.4,85.6-163.1c-3.7-2.8-13.8,5.1-21.6,11.1c-56.8,43.9-69,120.4-72.2,148.1     C1332.9,1365.6,1335.6,1366.9,1338.3,1368.2z"></path>
		</g>
		<g>
			<path class="st15" d="M1336.4,1352.4c-0.1,0-0.2,0-0.4-0.1c-0.5-0.2-0.7-0.8-0.5-1.2c7-17.2,15.1-34.3,24-50.6     c13-23.9,28.1-47,44.8-68.5c0.3-0.4,0.9-0.5,1.3-0.2c0.4,0.3,0.5,0.9,0.2,1.3c-16.7,21.5-31.7,44.4-44.7,68.3     c-8.8,16.3-16.9,33.2-23.9,50.4C1337.1,1352.1,1336.8,1352.4,1336.4,1352.4z"></path>
		</g>
		<g>
			<path class="st16" d="M1319.1,1366.2c-10.8-136.3-18.4-284.6,1.2-287.7c7.1-1.2,15.4,17.2,21.7,31.1     c46.3,102.2,7.1,216.7-8.8,257.3C1328.5,1366.6,1323.8,1366.4,1319.1,1366.2z"></path>
		</g>
		<g>
			<path class="st15" d="M1327.9,1361.3c0,0-0.1,0-0.2,0c-0.5-0.1-0.9-0.6-0.8-1.1c6.9-43.1,10.2-87,10-130.5     c-0.2-33.7-2.6-67.8-7-101.3c-0.1-0.5,0.3-1,0.8-1.1c0.5-0.1,1,0.3,1.1,0.8c4.5,33.5,6.8,67.7,7,101.5     c0.3,43.6-3.1,87.7-10,130.8C1328.8,1361,1328.4,1361.3,1327.9,1361.3z"></path>
		</g>
	</g>
	<g>
		<g>
			<path class="st14" d="M435.7,1362.9c-58.4-87-119.3-183.2-107.4-192.7c4.3-3.4,16.7,5.7,26.2,12.6     c69.4,50.9,86.3,142.1,90.8,175.2C442.1,1359.6,438.9,1361.2,435.7,1362.9z"></path>
		</g>
		<g>
			<path class="st15" d="M437.5,1343.8c-0.4,0-0.9-0.3-1-0.7c-8.9-20.4-19-40.4-30.1-59.6c-16.2-28.1-34.9-55.2-55.5-80.4     c-0.4-0.5-0.3-1.2,0.2-1.6c0.5-0.4,1.2-0.3,1.6,0.2c20.7,25.3,39.5,52.4,55.7,80.7c11.1,19.3,21.3,39.4,30.2,59.9     c0.3,0.6,0,1.2-0.6,1.5C437.8,1343.8,437.6,1343.8,437.5,1343.8z"></path>
		</g>
		<g>
			<path class="st14" d="M459.9,1364.1c56.2-88.4,114.6-186.2,102.5-195.3c-4.4-3.3-16.6,6.1-25.8,13.3     c-68.1,52.6-82.7,144.2-86.4,177.4C453.4,1361,456.6,1362.6,459.9,1364.1z"></path>
		</g>
		<g>
			<path class="st15" d="M457.6,1345.1c-0.1,0-0.3,0-0.4-0.1c-0.6-0.2-0.9-0.9-0.6-1.5c8.4-20.6,18.1-41,28.7-60.6     c15.6-28.6,33.6-56.3,53.7-82.1c0.4-0.5,1.1-0.6,1.6-0.2c0.5,0.4,0.6,1.1,0.2,1.6c-20,25.7-38,53.2-53.5,81.8     c-10.6,19.5-20.2,39.8-28.6,60.4C458.4,1344.9,458,1345.1,457.6,1345.1z"></path>
		</g>
		<g>
			<path class="st16" d="M436.9,1361.7c-12.9-163.2-22-340.8,1.4-344.6c8.5-1.4,18.4,20.6,26,37.2c55.5,122.5,8.6,259.6-10.5,308.1     C448.2,1362.2,442.5,1362,436.9,1361.7z"></path>
		</g>
		<g>
			<path class="st15" d="M447.5,1355.8c-0.1,0-0.1,0-0.2,0c-0.6-0.1-1-0.7-0.9-1.3c8.2-51.6,12.2-104.2,11.9-156.3     c-0.2-40.4-3.1-81.2-8.4-121.3c-0.1-0.6,0.4-1.2,1-1.3c0.6-0.1,1.2,0.4,1.3,1c5.4,40.2,8.2,81.1,8.4,121.6     c0.3,52.3-3.7,105-11.9,156.7C448.5,1355.4,448,1355.8,447.5,1355.8z"></path>
		</g>
	</g>
	<path class="st16" d="M1692.5,1364.9H90.3c-2.6,0-4.8-2.1-4.8-4.8v-0.3c0-2.6,2.1-4.8,4.8-4.8h1602.2c2.6,0,4.8,2.1,4.8,4.8v0.3   C1697.3,1362.8,1695.2,1364.9,1692.5,1364.9z"></path>
	<g>
		<path class="st17" d="M447.1,957.5H110.6c-18.6,0-33.6-15.1-33.6-33.6v-170c0-10.9,5.2-20.6,13.2-26.7c5.7-4.3,12.8-6.9,20.4-6.9    h336.5c18.6,0,33.6,15.1,33.6,33.6v170C480.7,942.4,465.6,957.5,447.1,957.5z"></path>
		<polygon class="st17" points="461.4,844.2 529.4,912.2 465.5,912.2   "></polygon>
		<path class="st1" d="M417.1,796.8H144.6c-5.4,0-9.8-4.4-9.8-9.8v0c0-5.4,4.4-9.8,9.8-9.8h272.6c5.4,0,9.8,4.4,9.8,9.8v0    C426.9,792.4,422.5,796.8,417.1,796.8z"></path>
		<path class="st1" d="M316.7,847.1H144.6c-5.4,0-9.8-4.4-9.8-9.8l0,0c0-5.4,4.4-9.8,9.8-9.8h172.2c5.4,0,9.8,4.4,9.8,9.8l0,0    C326.5,842.7,322.1,847.1,316.7,847.1z"></path>
		<path class="st1" d="M379.6,903H144.6c-5.4,0-9.8-4.4-9.8-9.8l0,0c0-5.4,4.4-9.8,9.8-9.8h235.1c5.4,0,9.8,4.4,9.8,9.8l0,0    C389.4,898.6,385,903,379.6,903z"></path>
		<circle class="st18" cx="82" cy="725.2" r="52"></circle>
		<g>
			<path class="st1" d="M72.5,734.9c0-1.2,0.1-2.3,0.2-3.4c0.2-1.1,0.5-2.1,0.9-3.1c0.4-1,1.1-1.9,1.9-2.8c0.8-0.9,2-1.6,3.3-2.4     c0.7-0.4,1.6-0.8,2.7-1.4c1.1-0.6,2.3-1.3,3.3-2c1.1-0.8,2-1.6,2.8-2.6c0.8-1,1.2-2.1,1.2-3.3c0-1.7-0.6-3-1.9-3.9     c-1.3-0.9-2.7-1.4-4.4-1.4c-1.1,0-2,0.2-2.8,0.6c-0.8,0.4-1.6,0.8-2.2,1.4c-0.7,0.5-1.2,1.1-1.7,1.8c-0.5,0.7-0.9,1.2-1.3,1.8     l-8.2-5.5c1.4-3.1,3.6-5.5,6.6-7.2c3-1.7,6.4-2.6,10.1-2.6c2,0,4,0.3,6,0.8c2,0.6,3.8,1.4,5.4,2.7c1.6,1.2,2.9,2.8,3.9,4.7     c1,1.9,1.5,4.3,1.5,7c0,2.9-0.6,5.3-1.9,7.3c-1.2,2-3.1,3.7-5.5,5.1c-1.1,0.7-2.2,1.3-3.4,1.9c-1.1,0.6-2.2,1.1-3.1,1.8     c-1,0.6-1.7,1.3-2.3,2.1c-0.6,0.8-0.9,1.7-0.9,2.7H72.5z M72.8,753.5v-11.4h10.4v11.4H72.8z"></path>
		</g>
	</g>
	<path class="st17" d="M1184.2,512.7h362.2c20,0,36.2-16.2,36.2-36.2v-183c0-11.7-5.6-22.1-14.2-28.7c-6.1-4.7-13.7-7.5-22-7.5   h-362.2c-20,0-36.2,16.2-36.2,36.2v183C1148,496.4,1164.2,512.7,1184.2,512.7z"></path>
	<polygon class="st17" points="1168.7,390.8 1095.6,463.9 1164.4,463.9  "></polygon>
	<path class="st1" d="M1216.4,339.7h293.4c5.8,0,10.5-4.7,10.5-10.5v0c0-5.8-4.7-10.5-10.5-10.5h-293.4c-5.8,0-10.5,4.7-10.5,10.5v0   C1205.8,335,1210.6,339.7,1216.4,339.7z"></path>
	<path class="st1" d="M1324.5,393.9h185.3c5.8,0,10.5-4.7,10.5-10.5v0c0-5.8-4.7-10.5-10.5-10.5h-185.3c-5.8,0-10.5,4.7-10.5,10.5v0   C1314,389.2,1318.7,393.9,1324.5,393.9z"></path>
	<path class="st1" d="M1256.8,454.1h253c5.8,0,10.5-4.7,10.5-10.5v0c0-5.8-4.7-10.5-10.5-10.5h-253c-5.8,0-10.5,4.7-10.5,10.5v0   C1246.3,449.4,1251,454.1,1256.8,454.1z"></path>
	<circle class="st18" cx="1577.1" cy="262.6" r="55.9"></circle>
	<g>
		<path class="st1" d="M1565.1,273c0-1.3,0.1-2.5,0.3-3.6c0.2-1.1,0.5-2.3,1-3.3c0.5-1.1,1.2-2.1,2.1-3c0.9-0.9,2.1-1.8,3.6-2.5    c0.7-0.4,1.7-0.9,3-1.5c1.2-0.6,2.4-1.4,3.6-2.2c1.2-0.8,2.2-1.8,3-2.8s1.3-2.3,1.3-3.6c0-1.8-0.7-3.2-2.1-4.2    c-1.4-1-2.9-1.5-4.7-1.5c-1.1,0-2.2,0.2-3,0.6c-0.9,0.4-1.7,0.9-2.4,1.5c-0.7,0.6-1.3,1.2-1.8,1.9c-0.5,0.7-1,1.3-1.4,1.9    l-8.8-5.9c1.5-3.3,3.8-5.9,7.1-7.8c3.2-1.9,6.9-2.8,10.9-2.8c2.2,0,4.3,0.3,6.5,0.9c2.2,0.6,4.1,1.6,5.8,2.9    c1.7,1.3,3.1,3,4.2,5.1c1.1,2.1,1.6,4.6,1.6,7.5c0,3.1-0.7,5.7-2,7.8c-1.3,2.1-3.3,3.9-5.9,5.5c-1.2,0.8-2.4,1.4-3.6,2    c-1.2,0.6-2.4,1.2-3.4,1.9c-1,0.7-1.9,1.4-2.5,2.2c-0.6,0.8-0.9,1.8-0.9,3H1565.1z M1565.3,293.1v-12.3h11.2v12.3H1565.3z"></path>
	</g>
	<circle class="st18" cx="605.8" cy="314.4" r="103.7"></circle>
	<g>
		<path class="st1" d="M583.4,333.8c0-2.3,0.2-4.6,0.5-6.7c0.3-2.1,0.9-4.2,1.8-6.2c0.9-2,2.2-3.8,3.9-5.5c1.7-1.7,3.9-3.3,6.7-4.7    c1.4-0.7,3.2-1.6,5.5-2.8c2.3-1.2,4.5-2.5,6.7-4c2.2-1.5,4-3.3,5.6-5.2c1.6-2,2.4-4.2,2.4-6.6c0-3.3-1.3-6-3.8-7.8    c-2.5-1.9-5.4-2.8-8.7-2.8c-2.1,0-4,0.4-5.6,1.1c-1.6,0.8-3.1,1.7-4.4,2.7c-1.3,1.1-2.5,2.3-3.4,3.6c-1,1.3-1.8,2.5-2.5,3.5    l-16.3-10.9c2.7-6.2,7.1-11,13.1-14.4c6-3.4,12.7-5.2,20.2-5.2c4,0,8,0.6,12.1,1.7c4,1.1,7.6,2.9,10.8,5.3    c3.2,2.4,5.8,5.6,7.8,9.4c2,3.9,3,8.5,3,14c0,5.8-1.2,10.6-3.7,14.5c-2.5,3.9-6.2,7.3-11,10.3c-2.2,1.4-4.5,2.7-6.7,3.8    c-2.3,1.1-4.4,2.3-6.3,3.5c-1.9,1.2-3.4,2.6-4.6,4.1c-1.2,1.5-1.7,3.3-1.7,5.5H583.4z M583.9,371v-22.8h20.8V371H583.9z"></path>
	</g>
	<circle class="st18" cx="1308.4" cy="967.9" r="49.1"></circle>
	<circle class="st19" cx="929.1" cy="63.4" r="49.1"></circle>
	<circle class="st19" cx="600.3" cy="1059.3" r="36.2"></circle>
	<circle class="st17" cx="356.1" cy="461.8" r="36.8"></circle>
	<circle class="st17" cx="1455" cy="686.2" r="30.7"></circle>
	<circle class="st18" cx="965.9" cy="325.4" r="36.8"></circle>
</g>
<path class="st15" d="M1064.1,1318C950,1301.8,927,1264.5,818.5,1262c-147.2-3.3-151.9,64.3-289.2,61.4  c-155.1-3.3-219.3-89.3-308.3-35.5c-36.5,22.1-81.8,73.5-80.5,75c0.4,0.4,4.5-2.6,8.2-5.5h1447.5c-43.1-28.9-114.6-68.2-207.4-77.8  C1256.2,1266.1,1211.7,1338.9,1064.1,1318z"></path>
<path class="st15" d="M834.8,530.3c1.9,0,4.1-0.4,6.2-1.4l-1.6-3.5c-5.2,2.3-9.6,0.3-10.7-2c-1-2,0.5-4.3,3.9-6.1  c12.7-6.5,10.9-20.1,10.8-20.2l-3.8,0.5c0.1,0.4,1.4,11-8.8,16.2c-6.5,3.4-7.1,8.1-5.6,11.2C826.6,528.1,830.3,530.3,834.8,530.3z"></path>
<path class="st15" d="M867.1,494.7l3.5-1.6c-3.9-8.6-12.1-9.1-12.5-9.1l-0.2,3.8C858.2,487.8,864.2,488.3,867.1,494.7z"></path>
<path class="st15" d="M840,483.8l2.2-3.1c-6.5-4.6-15.1-2.7-15.4-2.6l0.9,3.7C827.7,481.9,834.9,480.2,840,483.8z"></path>
</svg>