<svg xmlns="http://www.w3.org/2000/svg" width="542.124" height="404" viewBox="0 0 542.124 404">
  <g id="Group_56" data-name="Group 56" transform="translate(-71 -232.696)">
    <g id="Group_55" data-name="Group 55" transform="translate(71 232.696)">
      <g id="Background_Complete" data-name="Background Complete" transform="translate(0 0)">
        <g id="Group_23" data-name="Group 23">
          <rect id="Rectangle_9" data-name="Rectangle 9" width="542.124" height="0.271" transform="translate(0 355.032)" fill="#ebebeb"/>
          <rect id="Rectangle_10" data-name="Rectangle 10" width="35.913" height="0.271" transform="translate(451.892 372.484)" fill="#ebebeb"/>
          <rect id="Rectangle_11" data-name="Rectangle 11" width="9.426" height="0.271" transform="translate(349.699 375.426)" fill="#ebebeb"/>
          <rect id="Rectangle_12" data-name="Rectangle 12" width="20.809" height="0.271" transform="translate(429.997 362.416)" fill="#ebebeb"/>
          <rect id="Rectangle_13" data-name="Rectangle 13" width="46.832" height="0.271" transform="translate(56.879 364.237)" fill="#ebebeb"/>
          <rect id="Rectangle_14" data-name="Rectangle 14" width="6.867" height="0.271" transform="translate(113.364 364.237)" fill="#ebebeb"/>
          <rect id="Rectangle_15" data-name="Rectangle 15" width="101.568" height="0.271" transform="translate(142.548 368.815)" fill="#ebebeb"/>
          <path id="Path_131" data-name="Path 131" d="M253.763,361.629H44.4a6.2,6.2,0,0,1-6.189-6.189V61.141A6.2,6.2,0,0,1,44.4,54.953H253.763a6.2,6.2,0,0,1,6.188,6.188v294.3A6.2,6.2,0,0,1,253.763,361.629ZM44.4,55.224a5.924,5.924,0,0,0-5.918,5.917v294.3a5.924,5.924,0,0,0,5.918,5.918H253.763a5.924,5.924,0,0,0,5.917-5.918V61.141a5.923,5.923,0,0,0-5.917-5.917Z" transform="translate(3.219 -54.953)" fill="#ebebeb"/>
          <path id="Path_132" data-name="Path 132" d="M470.059,361.629H260.693a6.2,6.2,0,0,1-6.188-6.189V61.141a6.2,6.2,0,0,1,6.188-6.188H470.059a6.2,6.2,0,0,1,6.19,6.188v294.3A6.2,6.2,0,0,1,470.059,361.629ZM260.693,55.224a5.923,5.923,0,0,0-5.917,5.917v294.3a5.924,5.924,0,0,0,5.917,5.918H470.059a5.925,5.925,0,0,0,5.919-5.918V61.141a5.925,5.925,0,0,0-5.919-5.917Z" transform="translate(21.442 -54.953)" fill="#ebebeb"/>
        </g>
        <g id="Group_26" data-name="Group 26" transform="translate(63.199 22.073)">
          <path id="Path_133" data-name="Path 133" d="M81.564,367.868c-.257-3.1.166-7.112,3.781-8.3,6.128-2.021,9.764-6.767,9.559-12.135s6.245-10.592,11.083-5.561,4.194-3.868,10.644-6.031,11.918,3.085,10.152,7.879,4.6,7.79,12.222,3.712,16.008,3.341,14.4,9.146-.293,6.451,4.53,4.516c3.9-1.563,10.274,1.717,10.986,6.778Z" transform="translate(-56.332 -53.404)" fill="#e0e0e0"/>
          <path id="Path_134" data-name="Path 134" d="M362.079,367.348c-.3-2.454-.167-6.033,2.876-7.037,4.758-1.569,7.58-5.253,7.421-9.42s4.849-8.223,8.6-4.317,3.255-3,8.263-4.682,9.252,2.394,7.881,6.117,3.57,6.047,9.487,2.882,12.427,2.592,11.175,7.1S417.559,363,421.3,361.5c3.174-1.273,8.446,1.6,8.559,5.852Z" transform="translate(-32.703 -52.885)" fill="#e0e0e0"/>
          <path id="Path_135" data-name="Path 135" d="M399.5,368.912H288.139c-1.567-5.226,2.484-11.494,6.9-12.377,5.421-1.084,10.871-10.623,11.128-16.7s10.015-24.752,25.195-13.217,10.566,1.7,21.547-1.542,17.907,6.084,13.089,13.077c0,0,11.03-2.765,15.574,7.536s0,16.7,0,16.7S395.512,361.985,399.5,368.912Z" transform="translate(-38.952 -54.449)" fill="#e0e0e0"/>
          <path id="Path_136" data-name="Path 136" d="M207.892,97.493a5.236,5.236,0,0,0-6.742-5.016,11.085,11.085,0,0,0-13.015-12.508,9.693,9.693,0,0,0-17.975,4.9c-.054,0-.107-.009-.162-.009a8.934,8.934,0,1,0,0,17.868h32.81l-.008-.008A5.233,5.233,0,0,0,207.892,97.493Z" transform="translate(-49.629 -75.311)" fill="#f5f5f5"/>
          <path id="Path_137" data-name="Path 137" d="M387.124,125.973a5.233,5.233,0,0,0-6.742-5.016,11.085,11.085,0,0,0-13.015-12.508,9.693,9.693,0,0,0-17.975,4.9c-.054,0-.107-.009-.162-.009a8.934,8.934,0,1,0,0,17.868H382.04l-.006-.008A5.233,5.233,0,0,0,387.124,125.973Z" transform="translate(-34.529 -72.912)" fill="#f5f5f5"/>
          <path id="Path_138" data-name="Path 138" d="M276.129,111.312a3.254,3.254,0,0,0-4.191-3.118,6.9,6.9,0,0,0-6.822-7.894,7,7,0,0,0-1.271.118,6.026,6.026,0,0,0-11.174,3.047c-.034,0-.066,0-.1,0a5.554,5.554,0,1,0,0,11.108h20.4l0,0A3.254,3.254,0,0,0,276.129,111.312Z" transform="translate(-42.388 -73.44)" fill="#f5f5f5"/>
          <path id="Path_139" data-name="Path 139" d="M433.005,105.445a3.251,3.251,0,0,0-4.191-3.118,7.081,7.081,0,0,0,.073-1,6.889,6.889,0,0,0-8.165-6.775A6.026,6.026,0,0,0,409.547,97.6c-.035,0-.067-.005-.1-.005a5.555,5.555,0,1,0,0,11.109h20.4l0-.005A3.254,3.254,0,0,0,433.005,105.445Z" transform="translate(-29.171 -73.934)" fill="#f5f5f5"/>
          <path id="Path_140" data-name="Path 140" d="M107.185,123.594a3.254,3.254,0,0,0-4.191-3.118A6.89,6.89,0,0,0,94.9,112.7a6.026,6.026,0,0,0-11.174,3.046c-.034,0-.066,0-.1,0a5.555,5.555,0,1,0,0,11.109h20.4l0-.005A3.253,3.253,0,0,0,107.185,123.594Z" transform="translate(-56.621 -72.405)" fill="#f5f5f5"/>
          <g id="Group_24" data-name="Group 24" transform="translate(228.847 65.001)">
            <path id="Path_141" data-name="Path 141" d="M382.985,211.207a9.988,9.988,0,0,0,.308-2.035c.25-4.223,4.282-3.553,7.711-4.127,2.679-.448-4.415-7.216.987-9.4a4.75,4.75,0,0,0,2.608-1.816,3.07,3.07,0,0,0-1.178-3.746,7.247,7.247,0,0,0-4.1-1.028c-.881-1.071-.165-2.684.689-3.778s1.9-2.339,1.573-3.688c-.488-2.037-3.334-2.11-5.391-1.714-.76-1.231-.745-2.769-1.113-4.168s-1.481-2.867-2.917-2.692c-1.353.165-2.179,1.693-3.505,2-1.541.363-2.874-1-4.082-2.021s-3.322-1.659-4.154-.313c-.5.806-.2,1.929-.718,2.723-.9,1.375-3.026.522-4.347-.453s-3.426-1.858-4.357-.505a5.691,5.691,0,0,0-.512,1.413c-.626,1.8-2.575,2.7-4.094,3.859s-2.721,3.458-1.437,4.869c.634.7,1.75.979,2.064,1.866.394,1.109-.739,2.1-1.636,2.866-1.493,1.27-1.763,5.069.21,6.108.828.436,2.044.57,2.247,1.484.182.816-.647,1.453-1.2,2.083a3.921,3.921,0,0,0,1.2,5.839c.474.228,1.056.414,1.232.909a1.868,1.868,0,0,1-.113,1.1,5.8,5.8,0,0,0-.191,2.114.961.961,0,0,0,.258.664,1.01,1.01,0,0,0,.625.177c2.85.127,4.225-.883,5.964,1.6a2.031,2.031,0,0,0,.594.631,1.855,1.855,0,0,0,.786.2c1.959.16,3.24-1.061,5.03-1.29,2.484-.317,3.01.965,5.2,1.993C380.671,214.549,382.339,213.552,382.985,211.207Z" transform="translate(-262.206 -132.173)" fill="#ebebeb"/>
            <path id="Path_142" data-name="Path 142" d="M352.714,207.936a9.908,9.908,0,0,0,.308-2.035c.25-4.222,4.282-3.553,7.711-4.127,2.679-.448-4.415-7.216.987-9.4a4.75,4.75,0,0,0,2.608-1.816,3.07,3.07,0,0,0-1.177-3.746,7.247,7.247,0,0,0-4.1-1.028c-.882-1.071-.165-2.684.687-3.778s1.9-2.339,1.574-3.688c-.488-2.037-3.334-2.11-5.391-1.714-.76-1.231-.745-2.769-1.114-4.168s-1.481-2.867-2.917-2.692c-1.353.165-2.179,1.693-3.505,2-1.541.363-2.874-1-4.082-2.021s-3.322-1.66-4.154-.313c-.5.806-.2,1.929-.718,2.723-.9,1.375-3.026.522-4.347-.453s-3.426-1.858-4.357-.505a5.649,5.649,0,0,0-.512,1.413c-.626,1.8-2.575,2.7-4.094,3.859s-2.721,3.458-1.437,4.869c.634.7,1.75.979,2.064,1.866.395,1.109-.739,2.1-1.636,2.866-1.493,1.27-1.763,5.069.21,6.108.828.436,2.044.57,2.247,1.484.182.816-.647,1.453-1.2,2.083a3.922,3.922,0,0,0,1.2,5.84c.474.227,1.056.413,1.232.908a1.86,1.86,0,0,1-.114,1.1,5.821,5.821,0,0,0-.19,2.114.961.961,0,0,0,.258.664,1.01,1.01,0,0,0,.625.177c2.85.127,4.225-.883,5.964,1.6a2.039,2.039,0,0,0,.594.63,1.859,1.859,0,0,0,.786.2c1.959.162,3.24-1.061,5.03-1.29,2.484-.317,3.01.965,5.2,1.994C350.4,211.278,352.068,210.282,352.714,207.936Z" transform="translate(-264.756 -132.448)" fill="#ebebeb"/>
            <path id="Path_143" data-name="Path 143" d="M349.8,188.659a9.936,9.936,0,0,0,.307-2.036c.252-4.222,4.283-3.553,7.712-4.127,2.679-.447-4.415-7.216.987-9.4a4.749,4.749,0,0,0,2.607-1.817,3.069,3.069,0,0,0-1.176-3.746,7.26,7.26,0,0,0-4.1-1.028c-.882-1.071-.165-2.684.687-3.778s1.9-2.339,1.574-3.688c-.488-2.036-3.334-2.11-5.391-1.714-.76-1.231-.746-2.769-1.115-4.168s-1.48-2.867-2.917-2.691c-1.352.165-2.178,1.691-3.505,2-1.54.363-2.873-1-4.082-2.021s-3.321-1.659-4.154-.313c-.5.806-.2,1.929-.717,2.723-.9,1.375-3.026.522-4.348-.453s-3.425-1.858-4.355-.505a5.665,5.665,0,0,0-.512,1.413c-.626,1.8-2.575,2.7-4.094,3.859s-2.721,3.458-1.437,4.869c.634.7,1.75.979,2.064,1.866.394,1.109-.739,2.1-1.636,2.866-1.493,1.27-1.763,5.069.21,6.108.828.437,2.043.57,2.247,1.484.182.816-.647,1.453-1.2,2.083a3.922,3.922,0,0,0,1.2,5.84c.474.227,1.056.413,1.232.909a1.865,1.865,0,0,1-.114,1.1,5.823,5.823,0,0,0-.19,2.114.961.961,0,0,0,.258.664,1,1,0,0,0,.625.177c2.85.127,4.225-.881,5.964,1.6a2.027,2.027,0,0,0,.594.63,1.839,1.839,0,0,0,.786.2c1.959.162,3.24-1.061,5.03-1.289,2.484-.317,3.01.964,5.2,1.993C347.483,192,349.151,191,349.8,188.659Z" transform="translate(-265.002 -134.072)" fill="#ebebeb"/>
            <path id="Path_144" data-name="Path 144" d="M329.856,198.261a9.937,9.937,0,0,0,.308-2.036c.25-4.222,4.282-3.553,7.711-4.126,2.679-.448-4.415-7.217.988-9.4a4.748,4.748,0,0,0,2.607-1.817,3.072,3.072,0,0,0-1.176-3.746,7.261,7.261,0,0,0-4.1-1.028c-.882-1.071-.165-2.684.688-3.778s1.9-2.339,1.573-3.688c-.488-2.036-3.334-2.11-5.391-1.714-.76-1.231-.745-2.769-1.113-4.168s-1.481-2.867-2.917-2.691c-1.353.165-2.179,1.691-3.505,2-1.541.363-2.874-1-4.082-2.021s-3.321-1.659-4.154-.313c-.5.806-.2,1.929-.718,2.723-.9,1.375-3.026.522-4.347-.453s-3.426-1.858-4.357-.505a5.708,5.708,0,0,0-.512,1.413c-.625,1.8-2.575,2.7-4.093,3.859s-2.723,3.458-1.437,4.869c.634.7,1.749.979,2.064,1.866.394,1.109-.741,2.1-1.637,2.866-1.492,1.27-1.763,5.069.21,6.108.828.437,2.044.57,2.247,1.484.182.818-.647,1.453-1.2,2.083a3.922,3.922,0,0,0,1.2,5.84c.474.227,1.056.413,1.232.909a1.856,1.856,0,0,1-.113,1.1,5.8,5.8,0,0,0-.19,2.114.965.965,0,0,0,.257.664,1,1,0,0,0,.626.177c2.849.127,4.224-.881,5.963,1.6a2.052,2.052,0,0,0,.594.63,1.843,1.843,0,0,0,.786.2c1.959.162,3.24-1.061,5.03-1.289,2.484-.317,3.011.964,5.2,1.993C327.542,201.6,329.21,200.606,329.856,198.261Z" transform="translate(-266.682 -133.263)" fill="#ebebeb"/>
            <path id="Path_145" data-name="Path 145" d="M309.7,193.826a9.919,9.919,0,0,0,.308-2.036c.25-4.222,4.282-3.553,7.711-4.126,2.679-.448-4.415-7.217.987-9.4a4.745,4.745,0,0,0,2.607-1.817,3.069,3.069,0,0,0-1.176-3.746,7.256,7.256,0,0,0-4.1-1.028c-.882-1.071-.165-2.684.687-3.778s1.9-2.339,1.574-3.688c-.488-2.036-3.334-2.11-5.391-1.714-.76-1.231-.745-2.769-1.114-4.168s-1.481-2.867-2.917-2.691c-1.353.165-2.179,1.691-3.505,2-1.541.363-2.874-1-4.082-2.021s-3.322-1.659-4.154-.313c-.5.806-.2,1.929-.718,2.723-.9,1.375-3.026.522-4.347-.453s-3.426-1.858-4.357-.5a5.641,5.641,0,0,0-.512,1.412c-.626,1.8-2.575,2.7-4.094,3.859s-2.721,3.458-1.437,4.869c.634.7,1.75.979,2.064,1.866.394,1.109-.739,2.1-1.636,2.866-1.493,1.27-1.763,5.069.21,6.108.828.437,2.044.57,2.247,1.484.182.818-.647,1.453-1.2,2.083a3.922,3.922,0,0,0,1.2,5.84c.474.227,1.056.413,1.232.909a1.856,1.856,0,0,1-.114,1.1,5.822,5.822,0,0,0-.19,2.114.961.961,0,0,0,.258.664,1,1,0,0,0,.626.177c2.849.127,4.224-.882,5.963,1.6a2.027,2.027,0,0,0,.594.63,1.839,1.839,0,0,0,.786.2c1.959.162,3.24-1.061,5.03-1.289,2.484-.317,3.01.964,5.2,1.993C307.389,197.167,309.057,196.171,309.7,193.826Z" transform="translate(-268.38 -133.637)" fill="#ebebeb"/>
            <path id="Path_146" data-name="Path 146" d="M308.965,214.735a7.772,7.772,0,0,0,.242-1.6c.2-3.324,3.372-2.8,6.073-3.248,2.109-.352-3.477-5.683.776-7.4a3.746,3.746,0,0,0,2.054-1.431,2.417,2.417,0,0,0-.927-2.949,5.719,5.719,0,0,0-3.229-.81c-.694-.844-.13-2.112.541-2.974s1.494-1.841,1.239-2.9c-.384-1.6-2.625-1.661-4.245-1.349a11.671,11.671,0,0,1-.877-3.282c-.289-1.1-1.166-2.257-2.3-2.12-1.065.13-1.715,1.333-2.759,1.579-1.213.285-2.263-.787-3.215-1.592s-2.615-1.307-3.27-.247c-.392.634-.158,1.519-.566,2.144-.706,1.083-2.382.411-3.422-.357s-2.7-1.464-3.431-.4a4.525,4.525,0,0,0-.4,1.112c-.492,1.42-2.028,2.128-3.222,3.039s-2.144,2.723-1.132,3.834c.5.549,1.378.771,1.625,1.469.31.874-.582,1.656-1.288,2.256-1.175,1-1.388,3.991.166,4.81.652.343,1.609.449,1.768,1.168.143.644-.51,1.145-.943,1.64a3.088,3.088,0,0,0,.945,4.6c.373.179.832.325.969.715a1.464,1.464,0,0,1-.089.868,4.57,4.57,0,0,0-.15,1.665.763.763,0,0,0,.2.523.79.79,0,0,0,.492.139c2.244.1,3.326-.694,4.7,1.259a1.584,1.584,0,0,0,.467.5,1.452,1.452,0,0,0,.619.155c1.542.127,2.55-.836,3.96-1.016,1.956-.249,2.37.76,4.094,1.57C307.142,217.366,308.456,216.581,308.965,214.735Z" transform="translate(-267.926 -131.172)" fill="#ebebeb"/>
            <path id="Path_147" data-name="Path 147" d="M298.148,207.936a9.914,9.914,0,0,0,.307-2.035c.252-4.222,4.283-3.553,7.712-4.127,2.679-.448-4.415-7.216.987-9.4a4.747,4.747,0,0,0,2.607-1.816,3.068,3.068,0,0,0-1.176-3.746,7.253,7.253,0,0,0-4.1-1.028c-.88-1.071-.164-2.684.689-3.778s1.9-2.339,1.574-3.688c-.488-2.037-3.335-2.11-5.391-1.714-.76-1.231-.746-2.769-1.115-4.168s-1.481-2.867-2.917-2.692c-1.352.165-2.179,1.693-3.505,2-1.54.363-2.873-1-4.082-2.021s-3.321-1.66-4.154-.313c-.5.806-.2,1.929-.718,2.723-.9,1.375-3.025.522-4.347-.453s-3.426-1.858-4.355-.505a5.646,5.646,0,0,0-.512,1.413c-.626,1.8-2.575,2.7-4.094,3.859s-2.721,3.458-1.437,4.869c.634.7,1.749.979,2.064,1.866.394,1.109-.739,2.1-1.636,2.866-1.493,1.27-1.763,5.069.21,6.108.828.436,2.043.57,2.247,1.484.181.816-.647,1.453-1.2,2.083a3.923,3.923,0,0,0,1.2,5.84c.474.227,1.056.413,1.232.908a1.868,1.868,0,0,1-.114,1.1,5.821,5.821,0,0,0-.19,2.114.965.965,0,0,0,.257.664,1.015,1.015,0,0,0,.626.177c2.85.127,4.225-.883,5.964,1.6a2.035,2.035,0,0,0,.593.63,1.859,1.859,0,0,0,.787.2c1.959.162,3.24-1.061,5.03-1.29,2.484-.317,3.01.965,5.2,1.994C295.832,211.278,297.5,210.282,298.148,207.936Z" transform="translate(-269.353 -132.448)" fill="#ebebeb"/>
            <path id="Path_148" data-name="Path 148" d="M329.856,174.548a9.926,9.926,0,0,0,.308-2.035c.25-4.223,4.282-3.554,7.711-4.127,2.679-.448-4.415-7.216.988-9.4a4.749,4.749,0,0,0,2.607-1.817,3.07,3.07,0,0,0-1.176-3.745,7.253,7.253,0,0,0-4.1-1.029c-.882-1.071-.165-2.684.688-3.778s1.9-2.339,1.573-3.688c-.488-2.036-3.334-2.11-5.391-1.713-.76-1.231-.745-2.77-1.113-4.169s-1.481-2.867-2.917-2.691c-1.353.165-2.179,1.691-3.505,2-1.541.362-2.874-1-4.082-2.021s-3.321-1.66-4.154-.314c-.5.807-.2,1.93-.718,2.723-.9,1.376-3.026.522-4.347-.453s-3.426-1.858-4.357-.5a5.685,5.685,0,0,0-.512,1.412c-.625,1.8-2.575,2.7-4.093,3.86s-2.723,3.457-1.437,4.868c.634.7,1.749.979,2.064,1.867.394,1.108-.741,2.1-1.637,2.866-1.492,1.27-1.763,5.068.21,6.106.828.437,2.044.57,2.247,1.484.182.818-.647,1.453-1.2,2.084a3.921,3.921,0,0,0,1.2,5.839c.474.227,1.056.413,1.232.909a1.856,1.856,0,0,1-.113,1.1,5.8,5.8,0,0,0-.19,2.115.969.969,0,0,0,.257.664,1.01,1.01,0,0,0,.626.176c2.849.127,4.224-.881,5.963,1.6a2.04,2.04,0,0,0,.594.63,1.844,1.844,0,0,0,.786.2c1.959.162,3.24-1.061,5.03-1.289,2.484-.317,3.011.964,5.2,1.993C327.542,177.89,329.21,176.893,329.856,174.548Z" transform="translate(-266.682 -135.261)" fill="#ebebeb"/>
            <path id="Path_149" data-name="Path 149" d="M355.746,175.872a9.922,9.922,0,0,0,.308-2.036c.25-4.222,4.282-3.553,7.711-4.126,2.679-.448-4.415-7.216.988-9.4a4.748,4.748,0,0,0,2.607-1.817,3.07,3.07,0,0,0-1.176-3.745,7.253,7.253,0,0,0-4.1-1.029c-.881-1.071-.165-2.684.689-3.778s1.9-2.338,1.573-3.688c-.488-2.036-3.334-2.11-5.391-1.714-.76-1.23-.745-2.769-1.114-4.168s-1.481-2.866-2.917-2.691c-1.353.165-2.179,1.691-3.505,2-1.541.362-2.874-1-4.082-2.021s-3.322-1.66-4.154-.314c-.5.807-.2,1.929-.718,2.723-.9,1.376-3.026.522-4.347-.453s-3.426-1.858-4.357-.5a5.684,5.684,0,0,0-.512,1.412c-.625,1.8-2.575,2.7-4.093,3.86s-2.723,3.457-1.437,4.868c.633.7,1.749.979,2.064,1.867.394,1.108-.741,2.1-1.637,2.866-1.492,1.269-1.763,5.068.21,6.108.828.436,2.044.569,2.247,1.483.182.818-.647,1.453-1.2,2.083a3.922,3.922,0,0,0,1.2,5.84c.474.227,1.056.413,1.232.909a1.864,1.864,0,0,1-.113,1.1,5.8,5.8,0,0,0-.191,2.114.966.966,0,0,0,.258.664,1,1,0,0,0,.626.177c2.849.127,4.224-.882,5.963,1.6a2.04,2.04,0,0,0,.594.63,1.843,1.843,0,0,0,.786.2c1.959.162,3.24-1.061,5.03-1.289,2.484-.317,3.011.964,5.2,1.993C353.432,179.214,355.1,178.217,355.746,175.872Z" transform="translate(-264.5 -135.15)" fill="#ebebeb"/>
            <path id="Path_150" data-name="Path 150" d="M371.472,186.467a10,10,0,0,0,.308-2.035c.25-4.223,4.282-3.554,7.711-4.127,2.679-.448-4.415-7.216.987-9.4a4.745,4.745,0,0,0,2.607-1.817,3.067,3.067,0,0,0-1.176-3.745,7.247,7.247,0,0,0-4.1-1.029c-.881-1.071-.165-2.684.687-3.778s1.9-2.339,1.574-3.688c-.488-2.036-3.334-2.109-5.391-1.713-.76-1.231-.745-2.77-1.113-4.169s-1.481-2.866-2.917-2.691c-1.353.165-2.179,1.691-3.505,2-1.541.362-2.874-1-4.082-2.021s-3.322-1.66-4.154-.314c-.5.807-.2,1.93-.718,2.723-.9,1.376-3.026.522-4.347-.453s-3.426-1.858-4.357-.5a5.641,5.641,0,0,0-.512,1.412c-.626,1.8-2.575,2.7-4.094,3.86s-2.721,3.458-1.437,4.869c.634.7,1.75.978,2.064,1.866.394,1.108-.739,2.1-1.636,2.866-1.493,1.27-1.763,5.068.21,6.108.828.436,2.044.569,2.247,1.483.182.818-.647,1.453-1.2,2.084a3.921,3.921,0,0,0,1.2,5.839c.474.227,1.056.413,1.232.909a1.857,1.857,0,0,1-.114,1.1,5.826,5.826,0,0,0-.19,2.115.965.965,0,0,0,.258.664,1.01,1.01,0,0,0,.626.176c2.849.127,4.224-.882,5.963,1.6a2.027,2.027,0,0,0,.594.63,1.839,1.839,0,0,0,.786.2c1.959.162,3.24-1.061,5.03-1.289,2.484-.317,3.01.964,5.2,1.993C369.158,189.809,370.826,188.812,371.472,186.467Z" transform="translate(-263.176 -134.257)" fill="#ebebeb"/>
            <path id="Path_151" data-name="Path 151" d="M370.658,198.742s-7.131,10.081-9.589,13.279-14.753,23.113-16.426,36.287c-.179,1.405-.355,2.616-.527,3.675,5.289,34.9,4.458,98.765,4.272,109.7H331.635c-.155-12.328-1.579-125.025-2.1-128.466-.555-3.641-7.558-17.506-18.378-23.2s-20.168-24.547-20.168-24.547h3.448s6.393,11.557,15.491,17.95a34.859,34.859,0,0,0,4.093,2.427c-.325-10.414,3.618-20.376,3.618-20.376l1.862,1.722c-2.513,10.293-2.183,16.885-1.423,20.672a37.417,37.417,0,0,1,9.408,6.3c9.436-12.272,14.744-40.336,14.744-40.336l2.417,1.32a143.074,143.074,0,0,1-3.12,17.212c-1.768,7.264-6.972,20.94-9.393,27.15a64.329,64.329,0,0,1,7.128,13.382,5.494,5.494,0,0,1,.911-1.092c6.148-5.558,17.7-31.817,17.7-31.817,2.8-6.1-1.476-22.129-1.476-22.129h3.226l1.446,14.016L369.183,183l1.475,1.23L362.052,195.3l-4.426,14.018,11.557-12.79Z" transform="translate(-267.531 -132.013)" fill="#e6e6e6"/>
          </g>
          <g id="Group_25" data-name="Group 25" transform="translate(18.389 120.995)">
            <path id="Path_152" data-name="Path 152" d="M84.363,245.175a7.632,7.632,0,0,1-.235-1.562c-.193-3.24-3.285-2.726-5.917-3.166-2.056-.343,3.387-5.536-.758-7.211a3.635,3.635,0,0,1-2-1.394,2.354,2.354,0,0,1,.9-2.873,5.567,5.567,0,0,1,3.146-.789c.677-.822.127-2.059-.528-2.9s-1.455-1.794-1.207-2.829c.374-1.563,2.558-1.619,4.136-1.315a11.391,11.391,0,0,0,.854-3.2c.283-1.073,1.136-2.2,2.238-2.065,1.038.127,1.672,1.3,2.689,1.539,1.182.279,2.205-.767,3.132-1.55s2.549-1.274,3.188-.241c.382.618.153,1.48.55,2.088.688,1.056,2.321.4,3.335-.347s2.629-1.426,3.343-.388a4.357,4.357,0,0,1,.393,1.084c.48,1.383,1.976,2.073,3.141,2.961s2.088,2.653,1.1,3.735c-.487.535-1.342.751-1.584,1.432-.3.851.567,1.613,1.256,2.2,1.145.974,1.353,3.889-.162,4.686-.635.335-1.568.437-1.724,1.138-.139.627.5,1.115.919,1.6a3.009,3.009,0,0,1-.921,4.48c-.364.175-.811.318-.945.7a1.427,1.427,0,0,0,.087.847,4.477,4.477,0,0,1,.146,1.622.748.748,0,0,1-.2.51.775.775,0,0,1-.48.136c-2.187.1-3.242-.677-4.577,1.225a1.544,1.544,0,0,1-.455.484,1.4,1.4,0,0,1-.6.151c-1.5.124-2.486-.814-3.859-.989-1.906-.243-2.311.739-3.989,1.529C86.14,247.739,84.86,246.975,84.363,245.175Z" transform="translate(-75.248 -184.535)" fill="#ebebeb"/>
            <path id="Path_153" data-name="Path 153" d="M107.589,242.665a7.621,7.621,0,0,1-.235-1.561c-.193-3.24-3.286-2.727-5.917-3.166-2.056-.344,3.387-5.537-.758-7.212a3.633,3.633,0,0,1-2-1.393,2.354,2.354,0,0,1,.9-2.874,5.567,5.567,0,0,1,3.146-.789c.677-.822.127-2.058-.528-2.9s-1.455-1.794-1.207-2.829c.374-1.562,2.558-1.619,4.136-1.315a11.393,11.393,0,0,0,.854-3.2c.283-1.073,1.136-2.2,2.238-2.065,1.038.126,1.672,1.3,2.689,1.537,1.182.279,2.205-.767,3.132-1.55s2.548-1.273,3.187-.241c.383.619.154,1.48.551,2.089.688,1.055,2.321.4,3.335-.348s2.629-1.426,3.343-.387a4.335,4.335,0,0,1,.392,1.083c.479,1.385,1.976,2.074,3.141,2.961s2.088,2.653,1.1,3.736c-.487.535-1.342.75-1.584,1.431-.3.851.567,1.614,1.256,2.2,1.145.975,1.352,3.889-.162,4.686-.635.335-1.568.438-1.724,1.138-.139.628.5,1.116.919,1.6a3.01,3.01,0,0,1-.921,4.481c-.364.173-.811.317-.945.7a1.424,1.424,0,0,0,.087.846,4.48,4.48,0,0,1,.146,1.623.747.747,0,0,1-.2.509.775.775,0,0,1-.48.136c-2.187.1-3.242-.677-4.577,1.226a1.567,1.567,0,0,1-.455.484,1.4,1.4,0,0,1-.6.15c-1.5.125-2.486-.814-3.859-.989-1.906-.243-2.311.739-3.989,1.529C109.366,245.23,108.086,244.465,107.589,242.665Z" transform="translate(-73.291 -184.746)" fill="#ebebeb"/>
            <path id="Path_154" data-name="Path 154" d="M109.827,227.874a7.7,7.7,0,0,1-.235-1.561c-.193-3.24-3.285-2.727-5.917-3.166-2.056-.344,3.387-5.537-.758-7.212a3.642,3.642,0,0,1-2-1.393,2.355,2.355,0,0,1,.9-2.874,5.568,5.568,0,0,1,3.148-.789c.675-.822.126-2.059-.528-2.9s-1.456-1.794-1.208-2.829c.374-1.563,2.558-1.619,4.136-1.315a11.354,11.354,0,0,0,.854-3.2c.283-1.072,1.136-2.2,2.238-2.064,1.038.126,1.672,1.3,2.69,1.537,1.181.279,2.2-.767,3.131-1.551s2.549-1.274,3.188-.241c.382.618.153,1.48.551,2.088.688,1.056,2.321.4,3.335-.347s2.628-1.426,3.342-.388a4.315,4.315,0,0,1,.392,1.084c.48,1.384,1.977,2.073,3.141,2.961s2.088,2.653,1.1,3.736c-.487.533-1.342.75-1.584,1.431-.3.851.568,1.613,1.256,2.2,1.145.974,1.353,3.889-.162,4.686-.635.335-1.568.437-1.724,1.138-.139.627.5,1.115.921,1.6a3.011,3.011,0,0,1-.922,4.481c-.363.173-.81.317-.945.7a1.445,1.445,0,0,0,.087.847,4.453,4.453,0,0,1,.146,1.622.743.743,0,0,1-.2.51.775.775,0,0,1-.48.136c-2.186.1-3.241-.677-4.576,1.225a1.556,1.556,0,0,1-.455.484,1.409,1.409,0,0,1-.6.151c-1.5.125-2.485-.814-3.859-.989-1.906-.243-2.309.739-3.989,1.529C111.6,230.438,110.324,229.674,109.827,227.874Z" transform="translate(-73.103 -185.992)" fill="#ebebeb"/>
            <path id="Path_155" data-name="Path 155" d="M125.127,235.241a7.62,7.62,0,0,1-.235-1.561c-.193-3.24-3.285-2.727-5.917-3.166-2.056-.344,3.387-5.536-.758-7.211a3.644,3.644,0,0,1-2-1.394,2.354,2.354,0,0,1,.9-2.874,5.575,5.575,0,0,1,3.146-.788c.677-.822.127-2.059-.528-2.9s-1.455-1.794-1.207-2.83c.374-1.562,2.558-1.619,4.136-1.315a11.393,11.393,0,0,0,.854-3.2c.283-1.073,1.136-2.2,2.238-2.066,1.038.127,1.672,1.3,2.689,1.537,1.182.279,2.205-.767,3.132-1.55s2.548-1.273,3.187-.241c.383.619.154,1.48.551,2.089.688,1.055,2.321.4,3.335-.348S141.284,206,142,207.04a4.334,4.334,0,0,1,.393,1.083c.479,1.385,1.976,2.074,3.141,2.961s2.088,2.653,1.1,3.736c-.487.535-1.342.75-1.584,1.432-.3.85.567,1.613,1.256,2.2,1.145.975,1.353,3.889-.162,4.686-.635.335-1.568.438-1.724,1.138-.139.628.5,1.116.919,1.6a3.009,3.009,0,0,1-.921,4.48c-.364.173-.811.317-.945.7a1.424,1.424,0,0,0,.087.846,4.481,4.481,0,0,1,.146,1.623.742.742,0,0,1-.2.509.775.775,0,0,1-.48.136c-2.187.1-3.242-.677-4.577,1.226a1.567,1.567,0,0,1-.455.484,1.4,1.4,0,0,1-.6.15c-1.5.125-2.486-.813-3.859-.989-1.906-.243-2.311.739-3.989,1.529C126.9,237.806,125.624,237.041,125.127,235.241Z" transform="translate(-71.814 -185.372)" fill="#ebebeb"/>
            <path id="Path_156" data-name="Path 156" d="M140.59,231.839a7.633,7.633,0,0,1-.235-1.562c-.193-3.24-3.285-2.726-5.917-3.166-2.056-.344,3.387-5.536-.758-7.211a3.647,3.647,0,0,1-2-1.394,2.355,2.355,0,0,1,.9-2.874,5.574,5.574,0,0,1,3.146-.788c.677-.822.127-2.059-.528-2.9s-1.455-1.794-1.207-2.83c.374-1.562,2.558-1.619,4.135-1.315a11.357,11.357,0,0,0,.855-3.2c.283-1.073,1.136-2.2,2.238-2.066,1.038.127,1.672,1.3,2.689,1.539,1.182.278,2.205-.768,3.132-1.552s2.548-1.273,3.187-.24c.383.618.154,1.48.551,2.088.689,1.055,2.321.4,3.335-.348s2.629-1.426,3.343-.387a4.334,4.334,0,0,1,.392,1.083c.48,1.385,1.976,2.074,3.141,2.961s2.088,2.653,1.1,3.736c-.487.535-1.342.751-1.584,1.432-.3.85.567,1.613,1.256,2.2,1.145.974,1.353,3.888-.162,4.686-.635.334-1.568.437-1.724,1.138-.139.627.5,1.115.919,1.6a3.009,3.009,0,0,1-.921,4.48c-.364.175-.811.317-.945.7a1.424,1.424,0,0,0,.087.846,4.48,4.48,0,0,1,.146,1.623.747.747,0,0,1-.2.509.775.775,0,0,1-.48.136c-2.187.1-3.242-.677-4.577,1.226a1.555,1.555,0,0,1-.455.484,1.416,1.416,0,0,1-.6.151c-1.5.124-2.486-.814-3.859-.99-1.906-.243-2.311.741-3.989,1.53C142.367,234.4,141.087,233.638,140.59,231.839Z" transform="translate(-70.511 -185.658)" fill="#ebebeb"/>
            <path id="Path_157" data-name="Path 157" d="M140.642,247.881a6,6,0,0,1-.185-1.23c-.152-2.551-2.587-2.147-4.659-2.493-1.619-.271,2.667-4.36-.6-5.678a2.877,2.877,0,0,1-1.575-1.1,1.855,1.855,0,0,1,.711-2.263,4.388,4.388,0,0,1,2.478-.621c.532-.647.1-1.621-.415-2.282s-1.146-1.413-.951-2.227c.295-1.231,2.015-1.275,3.257-1.035a8.952,8.952,0,0,0,.672-2.519c.223-.845.895-1.732,1.762-1.626.818.1,1.317,1.022,2.119,1.211.93.22,1.736-.6,2.466-1.221s2.007-1,2.51-.19c.3.487.12,1.166.433,1.645.543.832,1.828.316,2.627-.273s2.07-1.123,2.631-.306a3.442,3.442,0,0,1,.309.853c.377,1.091,1.556,1.633,2.473,2.332s1.645,2.088.868,2.942c-.384.421-1.057.591-1.248,1.128-.237.67.447,1.271.989,1.732.9.767,1.066,3.062-.127,3.69-.5.263-1.235.344-1.357.9-.109.493.391.877.724,1.258a2.37,2.37,0,0,1-.725,3.528c-.286.137-.638.249-.744.549a1.122,1.122,0,0,0,.068.667,3.524,3.524,0,0,1,.115,1.277.587.587,0,0,1-.156.4.611.611,0,0,1-.377.106c-1.722.077-2.552-.532-3.6.965a1.246,1.246,0,0,1-.359.382,1.134,1.134,0,0,1-.475.118c-1.184.1-1.958-.642-3.039-.78-1.5-.191-1.818.583-3.141,1.2C142.04,249.9,141.032,249.3,140.642,247.881Z" transform="translate(-70.343 -183.767)" fill="#ebebeb"/>
            <path id="Path_158" data-name="Path 158" d="M149.456,242.665a7.62,7.62,0,0,1-.235-1.561c-.193-3.24-3.285-2.727-5.917-3.166-2.056-.344,3.387-5.537-.758-7.212a3.64,3.64,0,0,1-2-1.393,2.355,2.355,0,0,1,.9-2.874,5.567,5.567,0,0,1,3.146-.789c.677-.822.127-2.058-.528-2.9s-1.455-1.794-1.207-2.829c.374-1.562,2.558-1.619,4.135-1.315a11.359,11.359,0,0,0,.855-3.2c.283-1.073,1.136-2.2,2.238-2.065,1.038.126,1.672,1.3,2.689,1.537,1.182.279,2.205-.767,3.132-1.55s2.548-1.273,3.187-.241c.383.619.154,1.48.551,2.089.689,1.055,2.321.4,3.335-.348s2.629-1.426,3.343-.387a4.335,4.335,0,0,1,.393,1.083c.479,1.385,1.975,2.074,3.141,2.961s2.088,2.653,1.1,3.736c-.487.535-1.342.75-1.584,1.431-.3.851.567,1.614,1.256,2.2,1.145.975,1.353,3.889-.162,4.686-.635.335-1.568.438-1.724,1.138-.139.628.5,1.116.919,1.6a3.01,3.01,0,0,1-.921,4.481c-.364.173-.811.317-.945.7a1.424,1.424,0,0,0,.087.846,4.48,4.48,0,0,1,.146,1.623.747.747,0,0,1-.2.509.775.775,0,0,1-.48.136c-2.187.1-3.242-.677-4.577,1.226a1.567,1.567,0,0,1-.455.484,1.4,1.4,0,0,1-.6.15c-1.5.125-2.486-.814-3.859-.989-1.906-.243-2.311.739-3.989,1.529C151.233,245.23,149.953,244.465,149.456,242.665Z" transform="translate(-69.764 -184.746)" fill="#ebebeb"/>
            <path id="Path_159" data-name="Path 159" d="M125.127,217.048a7.642,7.642,0,0,1-.235-1.562c-.193-3.24-3.285-2.727-5.917-3.166-2.056-.344,3.387-5.536-.758-7.211a3.644,3.644,0,0,1-2-1.394,2.354,2.354,0,0,1,.9-2.874,5.567,5.567,0,0,1,3.146-.789c.677-.822.127-2.058-.528-2.9s-1.455-1.793-1.207-2.829c.374-1.562,2.558-1.619,4.136-1.315a11.391,11.391,0,0,0,.854-3.2c.283-1.072,1.136-2.2,2.238-2.064,1.038.127,1.672,1.3,2.689,1.537,1.182.279,2.205-.767,3.132-1.55s2.548-1.273,3.187-.241c.383.618.154,1.48.551,2.089.688,1.055,2.321.4,3.335-.348s2.629-1.426,3.343-.387a4.334,4.334,0,0,1,.393,1.083c.479,1.385,1.976,2.074,3.141,2.961s2.088,2.653,1.1,3.736c-.487.535-1.342.75-1.584,1.431-.3.851.567,1.614,1.256,2.2,1.145.975,1.353,3.889-.162,4.686-.635.335-1.568.438-1.724,1.14-.139.627.5,1.115.919,1.6a3.009,3.009,0,0,1-.921,4.48c-.364.173-.811.317-.945.7a1.424,1.424,0,0,0,.087.846,4.481,4.481,0,0,1,.146,1.623.743.743,0,0,1-.2.509.775.775,0,0,1-.48.136c-2.187.1-3.242-.677-4.577,1.226a1.567,1.567,0,0,1-.455.484,1.4,1.4,0,0,1-.6.15c-1.5.125-2.486-.814-3.859-.989-1.906-.243-2.311.739-3.989,1.529C126.9,219.612,125.624,218.847,125.127,217.048Z" transform="translate(-71.814 -186.905)" fill="#ebebeb"/>
            <path id="Path_160" data-name="Path 160" d="M105.263,218.063a7.618,7.618,0,0,1-.236-1.561c-.192-3.24-3.285-2.727-5.917-3.166-2.056-.344,3.388-5.537-.757-7.212a3.645,3.645,0,0,1-2-1.393,2.355,2.355,0,0,1,.9-2.874,5.565,5.565,0,0,1,3.146-.789c.675-.822.126-2.059-.528-2.9s-1.456-1.794-1.208-2.829c.374-1.562,2.559-1.619,4.136-1.315a11.355,11.355,0,0,0,.854-3.2c.283-1.072,1.136-2.2,2.238-2.064,1.038.126,1.672,1.3,2.69,1.537,1.182.279,2.205-.767,3.132-1.55s2.548-1.273,3.187-.241c.383.618.153,1.48.551,2.089.688,1.055,2.321.4,3.335-.348s2.628-1.426,3.342-.387a4.336,4.336,0,0,1,.394,1.083c.479,1.385,1.975,2.073,3.14,2.961s2.089,2.653,1.1,3.736c-.487.535-1.342.75-1.584,1.431-.3.851.568,1.613,1.256,2.2,1.146.975,1.353,3.889-.16,4.686-.636.335-1.568.438-1.724,1.138-.14.627.5,1.116.919,1.6a3.011,3.011,0,0,1-.922,4.481c-.363.173-.81.317-.944.7a1.427,1.427,0,0,0,.087.847,4.452,4.452,0,0,1,.145,1.622.738.738,0,0,1-.2.51.77.77,0,0,1-.479.136c-2.187.1-3.242-.677-4.577,1.226a1.567,1.567,0,0,1-.455.484,1.419,1.419,0,0,1-.6.15c-1.5.125-2.485-.814-3.859-.989-1.906-.243-2.309.739-3.989,1.529C107.039,220.628,105.759,219.863,105.263,218.063Z" transform="translate(-73.487 -186.819)" fill="#ebebeb"/>
            <path id="Path_161" data-name="Path 161" d="M93.2,226.193a7.64,7.64,0,0,1-.236-1.562c-.192-3.24-3.285-2.727-5.917-3.166-2.056-.344,3.388-5.536-.757-7.211a3.647,3.647,0,0,1-2-1.394,2.355,2.355,0,0,1,.9-2.874,5.572,5.572,0,0,1,3.146-.788c.677-.822.126-2.059-.528-2.9s-1.456-1.794-1.208-2.83c.375-1.562,2.559-1.619,4.136-1.315a11.357,11.357,0,0,0,.854-3.2c.283-1.073,1.136-2.2,2.238-2.065,1.039.127,1.672,1.3,2.69,1.539,1.182.278,2.205-.768,3.132-1.552s2.548-1.273,3.187-.241c.383.619.154,1.48.551,2.089.688,1.055,2.321.4,3.335-.348s2.629-1.426,3.342-.387a4.336,4.336,0,0,1,.394,1.083c.479,1.385,1.975,2.074,3.141,2.961s2.088,2.653,1.1,3.736c-.487.535-1.341.75-1.584,1.432-.3.85.568,1.613,1.256,2.2,1.146.975,1.353,3.889-.16,4.686-.636.335-1.568.438-1.724,1.14-.14.627.5,1.115.919,1.6a3.009,3.009,0,0,1-.922,4.48c-.363.173-.81.317-.944.7a1.424,1.424,0,0,0,.087.846,4.456,4.456,0,0,1,.145,1.623.737.737,0,0,1-.2.509.77.77,0,0,1-.479.136c-2.187.1-3.242-.677-4.577,1.226a1.555,1.555,0,0,1-.455.484,1.42,1.42,0,0,1-.6.151c-1.5.124-2.485-.814-3.859-.99-1.906-.243-2.309.739-3.989,1.529C94.973,228.757,93.693,227.992,93.2,226.193Z" transform="translate(-74.504 -186.134)" fill="#ebebeb"/>
            <path id="Path_162" data-name="Path 162" d="M96.147,235.611s5.471,7.735,7.358,10.188,11.32,17.735,12.6,27.842c.138,1.078.272,2.007.4,2.819-4.057,26.781-3.421,75.779-3.278,84.168h12.854c.118-9.459,1.211-95.927,1.613-98.568.426-2.793,5.8-13.432,14.1-17.8s15.474-18.834,15.474-18.834h-2.646s-4.905,8.867-11.886,13.772a26.744,26.744,0,0,1-3.141,1.862,44.563,44.563,0,0,0-2.776-15.634l-1.428,1.321c1.928,7.9,1.674,12.956,1.091,15.861a28.684,28.684,0,0,0-7.218,4.83c-7.241-9.416-11.313-30.949-11.313-30.949l-1.854,1.013a109.736,109.736,0,0,0,2.394,13.206c1.357,5.574,5.35,16.066,7.207,20.832A49.326,49.326,0,0,0,120.24,261.8a4.157,4.157,0,0,0-.7-.837c-4.716-4.264-13.583-24.413-13.583-24.413-2.145-4.684,1.132-16.979,1.132-16.979h-2.475L103.5,230.329l-6.226-6.792-1.132.943,6.6,8.49,3.4,10.757-8.867-9.814Z" transform="translate(-73.487 -184.412)" fill="#e6e6e6"/>
          </g>
          <path id="Rectangle_16" data-name="Rectangle 16" d="M0,0H415.727a0,0,0,0,1,0,0V13.593a7.915,7.915,0,0,1-7.915,7.915H7.915A7.915,7.915,0,0,1,0,13.593V0A0,0,0,0,1,0,0Z" transform="translate(415.727 333.868) rotate(180)" fill="#e0e0e0"/>
        </g>
      </g>
      <g id="Shadow" transform="translate(60.838 379.445)">
        <ellipse id="_Path_" data-name="&lt;Path&gt;" cx="210.224" cy="12.277" rx="210.224" ry="12.277" transform="translate(0 0)" fill="#f5f5f5"/>
      </g>
      <g id="Plant" transform="translate(85.144 239.535)">
        <g id="Group_30" data-name="Group 30">
          <path id="Path_163" data-name="Path 163" d="M106.933,392.81s-1.5-11.032-8.56-12.239-4.927-6.541-6.765-8.606-6.638,4.027-2.526,9.928.75,4.046,2.526,9.533S107.578,401.954,106.933,392.81Z" transform="translate(-77.776 -267.815)" fill="#263238"/>
          <path id="Path_164" data-name="Path 164" d="M106.933,392.81s-1.5-11.032-8.56-12.239-4.927-6.541-6.765-8.606-6.638,4.027-2.526,9.928.75,4.046,2.526,9.533S107.578,401.954,106.933,392.81Z" transform="translate(-77.776 -267.815)" fill="#fff" opacity="0.2" style="isolation: isolate"/>
          <path id="Path_165" data-name="Path 165" d="M106.261,407.407s-5.407-11.238-2.569-29.578,13.5-25.457,4.232-45.638S88.069,297.622,93.365,283.3" transform="translate(-77.398 -275.25)" fill="none" stroke="#263238" stroke-linecap="round" stroke-linejoin="round" stroke-width="0.902"/>
          <path id="Path_166" data-name="Path 166" d="M101.513,397.259s-4.56-6.872,2.021-10.4,7.9-.689,11.973-3.229,7.157-8.7,7.851-4.758-4.008,6.186-2.345,7.987S109.944,400.356,101.513,397.259Z" transform="translate(-76.722 -267.307)" fill="#263238"/>
          <g id="Group_28" data-name="Group 28">
            <path id="Path_167" data-name="Path 167" d="M91.548,289.667s-4.443-13.5,5.661-13.786S96.175,288.227,91.548,289.667Z" transform="translate(-77.514 -275.876)" fill="#263238"/>
            <path id="Path_168" data-name="Path 168" d="M99.566,298.95s3.011-12.278,10.183-9.689S106.714,299.176,99.566,298.95Z" transform="translate(-76.756 -274.778)" fill="#263238"/>
            <path id="Path_169" data-name="Path 169" d="M89.172,299.927s1.081-9.8-6.529-9.992S78.421,298.345,89.172,299.927Z" transform="translate(-78.529 -274.692)" fill="#263238"/>
            <path id="Path_170" data-name="Path 170" d="M94.15,317.961s-10.214-9.105-13.887-2.33S87.967,323.819,94.15,317.961Z" transform="translate(-78.443 -272.738)" fill="#263238"/>
            <path id="Path_171" data-name="Path 171" d="M109.68,316.973s1.92-15.122,10.17-10.378S116.867,318.484,109.68,316.973Z" transform="translate(-75.904 -273.365)" fill="#263238"/>
            <path id="Path_172" data-name="Path 172" d="M116.5,337.127s-6.089-15.279,5.227-13.557S124.491,333.419,116.5,337.127Z" transform="translate(-75.467 -271.869)" fill="#263238"/>
            <path id="Path_173" data-name="Path 173" d="M101.906,341.743s-9.559-11.26-16.862-7.69S83.709,348.819,101.906,341.743Z" transform="translate(-78.236 -271.033)" fill="#263238"/>
            <path id="Path_174" data-name="Path 174" d="M108.36,365.129s8.143-18.081,15.382-11.987S119.124,368.346,108.36,365.129Z" transform="translate(-76.015 -269.472)" fill="#263238"/>
            <path id="Path_175" data-name="Path 175" d="M98.279,364.131s2.152-14.026-5.909-12.9S86.425,360.941,98.279,364.131Z" transform="translate(-77.768 -269.532)" fill="#263238"/>
            <g id="Group_27" data-name="Group 27" opacity="0.2" style="isolation: isolate">
              <path id="Path_176" data-name="Path 176" d="M91.548,289.667s-4.443-13.5,5.661-13.786S96.175,288.227,91.548,289.667Z" transform="translate(-77.514 -275.876)" fill="#fff"/>
              <path id="Path_177" data-name="Path 177" d="M99.566,298.95s3.011-12.278,10.183-9.689S106.714,299.176,99.566,298.95Z" transform="translate(-76.756 -274.778)" fill="#fff"/>
              <path id="Path_178" data-name="Path 178" d="M89.172,299.927s1.081-9.8-6.529-9.992S78.421,298.345,89.172,299.927Z" transform="translate(-78.529 -274.692)" fill="#fff"/>
              <path id="Path_179" data-name="Path 179" d="M94.15,317.961s-10.214-9.105-13.887-2.33S87.967,323.819,94.15,317.961Z" transform="translate(-78.443 -272.738)" fill="#fff"/>
              <path id="Path_180" data-name="Path 180" d="M109.68,316.973s1.92-15.122,10.17-10.378S116.867,318.484,109.68,316.973Z" transform="translate(-75.904 -273.365)" fill="#fff"/>
              <path id="Path_181" data-name="Path 181" d="M116.5,337.127s-6.089-15.279,5.227-13.557S124.491,333.419,116.5,337.127Z" transform="translate(-75.467 -271.869)" fill="#fff"/>
              <path id="Path_182" data-name="Path 182" d="M101.906,341.743s-9.559-11.26-16.862-7.69S83.709,348.819,101.906,341.743Z" transform="translate(-78.236 -271.033)" fill="#fff"/>
              <path id="Path_183" data-name="Path 183" d="M108.36,365.129s8.143-18.081,15.382-11.987S119.124,368.346,108.36,365.129Z" transform="translate(-76.015 -269.472)" fill="#fff"/>
              <path id="Path_184" data-name="Path 184" d="M98.279,364.131s2.152-14.026-5.909-12.9S86.425,360.941,98.279,364.131Z" transform="translate(-77.768 -269.532)" fill="#fff"/>
            </g>
          </g>
          <path id="Path_185" data-name="Path 185" d="M86.009,296.188s4.347,6.458,10.294,9.788c0,0,3.934-7.59,7-9.43" transform="translate(-77.898 -274.164)" fill="none" stroke="#263238" stroke-linecap="round" stroke-linejoin="round" stroke-width="0.902"/>
          <path id="Path_186" data-name="Path 186" d="M85.782,317.2s11.053-.357,19.8,6.257c0,0,4.857-8.234,11.232-11.986" transform="translate(-77.917 -272.877)" fill="none" stroke="#263238" stroke-linecap="round" stroke-linejoin="round" stroke-width="0.902"/>
          <path id="Path_187" data-name="Path 187" d="M121.98,329.39s-4.745,12.487-10.8,17.346c0,0-12.556-7.279-21.776-7.46" transform="translate(-77.613 -271.367)" fill="none" stroke="#263238" stroke-linecap="round" stroke-linejoin="round" stroke-width="0.902"/>
          <path id="Path_188" data-name="Path 188" d="M92.856,355.424s6.2,12.111,10.832,14.757c0,0,4.325-6.1,13.682-8.909" transform="translate(-77.322 -269.174)" fill="none" stroke="#263238" stroke-linecap="round" stroke-linejoin="round" stroke-width="0.902"/>
          <path id="Path_189" data-name="Path 189" d="M103.328,395.072s-3.911-6.224-8.327-7.109-6.319-5.973-7.949-2.913S89.917,398.251,103.328,395.072Z" transform="translate(-77.837 -266.76)" fill="#263238"/>
          <g id="Group_29" data-name="Group 29" transform="translate(0.7 125.816)">
            <path id="Path_190" data-name="Path 190" d="M83.545,418.8h42.7L129.1,392.46H80.688Z" transform="translate(-79.047 -391.869)" fill="#27adb0"/>
            <path id="Path_191" data-name="Path 191" d="M79.819,397.5h50.4l.645-5.58H79.174Z" transform="translate(-79.174 -391.915)" fill="#407bff"/>
            <path id="Path_192" data-name="Path 192" d="M79.819,397.5h50.4l.645-5.58H79.174Z" transform="translate(-79.174 -391.915)" fill="#149c9f"/>
          </g>
        </g>
      </g>
      <g id="Lamp" transform="translate(432.599 96.01)">
        <g id="Group_31" data-name="Group 31">
          <path id="Path_193" data-name="Path 193" d="M430.917,154.064l-3.708,35.617H408.646l-3.708-35.617Z" transform="translate(-398.483 -142.613)" fill="#263238"/>
          <path id="Path_194" data-name="Path 194" d="M430.917,154.064l-3.708,35.617H408.646l-3.708-35.617Z" transform="translate(-398.483 -142.613)" fill="#fff" opacity="0.3"/>
          <rect id="Rectangle_17" data-name="Rectangle 17" width="6.908" height="256.859" transform="translate(15.991 39.408)" fill="#263238"/>
          <rect id="Rectangle_18" data-name="Rectangle 18" width="6.908" height="256.859" transform="translate(15.991 39.408)" fill="#fff" opacity="0.3"/>
          <path id="Path_195" data-name="Path 195" d="M425.068,187.34H410.413l-3.253-31.278h21.161Z" transform="translate(-398.296 -142.445)" fill="#f4721f"/>
          <path id="Path_197" data-name="Path 197" d="M415.3,187.912h-1l-1.084-32.851h1Z" transform="translate(-397.786 -142.529)" fill="#263238"/>
          <path id="Path_198" data-name="Path 198" d="M415.3,187.912h-1l-1.084-32.851h1Z" transform="translate(-397.786 -142.529)" fill="#fff" opacity="0.3"/>
          <path id="Path_200" data-name="Path 200" d="M418.43,143.5s-11.009,10.866-19.445,10.866l2.616,1.715h33.656l2.617-1.715C429.439,154.369,418.43,143.5,418.43,143.5Z" transform="translate(-398.985 -143.503)" fill="#263238"/>
          <path id="Path_201" data-name="Path 201" d="M437.869,154.368l-2.613,1.713H401.6l-2.613-1.713c8.435,0,19.441-10.864,19.441-10.864S429.434,154.368,437.869,154.368Z" transform="translate(-398.985 -143.503)" fill="#fff" opacity="0.4"/>
          <path id="Path_202" data-name="Path 202" d="M436.837,154.368l-2.613,1.713H412.366c-.661-1.073-1.128-1.854-1.128-1.854C417.1,151.506,417.4,143.5,417.4,143.5S428.4,154.368,436.837,154.368Z" transform="translate(-397.953 -143.503)" fill="#fff" opacity="0.2"/>
          <path id="Rectangle_19" data-name="Rectangle 19" d="M2.473,0H14.747a2.473,2.473,0,0,1,2.473,2.473v2.28a0,0,0,0,1,0,0H0a0,0,0,0,1,0,0V2.473A2.473,2.473,0,0,1,2.473,0Z" transform="translate(10.835 291.514)" fill="#263238"/>
          <path id="Rectangle_20" data-name="Rectangle 20" d="M2.473,0H14.747a2.473,2.473,0,0,1,2.473,2.473v2.28a0,0,0,0,1,0,0H0a0,0,0,0,1,0,0V2.473A2.473,2.473,0,0,1,2.473,0Z" transform="translate(10.835 291.514)" fill="#fff" opacity="0.5"/>
        </g>
      </g>
      <g id="Interface" transform="translate(110.163 67.864)">
        <g id="Group_36" data-name="Group 36">
          <rect id="Rectangle_21" data-name="Rectangle 21" width="158.561" height="215.306" rx="7.83" fill="#407bff"/>
          <rect id="Rectangle_22" data-name="Rectangle 22" width="158.561" height="215.306" rx="7.83" fill="#ffd8bf" style="isolation: isolate"/>
          <g id="Group_33" data-name="Group 33" transform="translate(57.986 36.448)">
            <path id="Path_203" data-name="Path 203" d="M197.672,172.444a21.295,21.295,0,1,1-21.295-21.284A21.275,21.275,0,0,1,197.672,172.444Z" transform="translate(-155.083 -151.16)" fill="#407bff"/>
            <path id="Path_204" data-name="Path 204" d="M197.672,172.444a21.295,21.295,0,1,1-21.295-21.284A21.275,21.275,0,0,1,197.672,172.444Z" transform="translate(-155.083 -151.16)" fill="#27adb0"/>
            <g id="Group_32" data-name="Group 32" transform="translate(7.785 11.657)">
              <circle id="Ellipse_1" data-name="Ellipse 1" cx="7.626" cy="7.626" r="7.626" transform="translate(5.885)" fill="#fff"/>
              <path id="Path_205" data-name="Path 205" d="M189.293,186.866a21.3,21.3,0,0,1-27.03,0c1.995-5.844,6.1-10.159,11.038-11.255a11.408,11.408,0,0,1,4.944,0C183.189,176.706,187.287,181.021,189.293,186.866Z" transform="translate(-162.263 -160.78)" fill="#fff"/>
            </g>
          </g>
          <rect id="Rectangle_23" data-name="Rectangle 23" width="103.516" height="17.725" rx="8.174" transform="translate(27.961 147.136)" fill="#27adb0"/>
          <text id="Forgot_Password_" data-name="Forgot Password?" transform="translate(61.961 176.739)" font-size="4" font-family="Montserrat-Regular, Montserrat" opacity="0.5"><tspan x="0" y="0">Forgot Password?</tspan></text>
          <text id="Login" transform="translate(78.961 159.136)" fill="#fff" font-size="8" font-family="Montserrat-Medium, Montserrat" font-weight="500"><tspan x="-11.488" y="0">Login</tspan></text>
          <rect id="Rectangle_24" data-name="Rectangle 24" width="103.516" height="17.725" rx="8.174" transform="translate(27.523 87.644)" fill="#fff"/>
          <rect id="Rectangle_25" data-name="Rectangle 25" width="103.516" height="17.725" rx="8.174" transform="translate(27.523 112.781)" fill="#fff"/>
          <text id="Name_mail.com" data-name="Name@mail.com" transform="translate(38.88 97.68)" font-size="5" font-family="Montserrat-Regular, Montserrat" opacity="0.5"><tspan x="0" y="0">Name@mail.com</tspan></text>
          <text id="_" data-name="*******" transform="translate(38.88 125.875)" font-size="7" font-family="Montserrat-Regular, Montserrat" opacity="0.5"><tspan x="0" y="0">*******</tspan></text>
          <path id="Path_206" data-name="Path 206" d="M205.658,202.713v8.325h11.794v-8.325Zm9.87.908-3.973,2.706-3.972-2.706Zm-8.962,6.51v-6.105l4.99,3.4,4.991-3.4v6.105Z" transform="translate(-92.836 -110.369)" opacity="0.2"/>
          <g id="Group_35" data-name="Group 35" transform="translate(113.735 116.945)" opacity="0.2">
            <g id="Group_34" data-name="Group 34">
              <path id="Path_207" data-name="Path 207" d="M214.271,228.722v-1.013a2.309,2.309,0,0,0-2.307-2.307h-1.257a2.31,2.31,0,0,0-2.308,2.307v1.013h-1.9v6.919h9.97v-6.919Zm-4.965-1.013a1.4,1.4,0,0,1,1.4-1.4h1.257a1.4,1.4,0,0,1,1.4,1.4v1.013h-4.058Zm6.256,7.024h-8.156v-5.1h8.156Z" transform="translate(-206.5 -225.402)"/>
              <path id="Path_208" data-name="Path 208" d="M210.876,231.984v.822h.524v-.822a.509.509,0,0,0,.254-.434.516.516,0,1,0-1.031,0A.506.506,0,0,0,210.876,231.984Z" transform="translate(-206.153 -224.927)"/>
            </g>
          </g>
        </g>
      </g>
      <g id="Speech_bubble" data-name="Speech bubble" transform="translate(340.545 98.34)">
        <g id="Group_41" data-name="Group 41">
          <g id="Group_37" data-name="Group 37">
            <path id="Path_209" data-name="Path 209" d="M354.824,145.652H323.675a9.592,9.592,0,0,0-9.591,9.591v27.108a9.591,9.591,0,0,0,9.591,9.591h12.319l3.255,8.559,3.255-8.559h12.319a9.591,9.591,0,0,0,9.591-9.591V155.243A9.591,9.591,0,0,0,354.824,145.652Z" transform="translate(-314.084 -145.652)" fill="#407bff"/>
            <path id="Path_210" data-name="Path 210" d="M354.824,145.652H323.675a9.592,9.592,0,0,0-9.591,9.591v27.108a9.591,9.591,0,0,0,9.591,9.591h12.319l3.255,8.559,3.255-8.559h12.319a9.591,9.591,0,0,0,9.591-9.591V155.243A9.591,9.591,0,0,0,354.824,145.652Z" transform="translate(-314.084 -145.652)" fill="#ffd8bf"/>
          </g>
          <g id="Group_40" data-name="Group 40" transform="translate(3.302 1.166)">
            <g id="Group_38" data-name="Group 38" style="isolation: isolate">
              <circle id="Ellipse_2" data-name="Ellipse 2" cx="15.459" cy="15.459" r="15.459" transform="translate(0 21.863) rotate(-45)" fill="#f4721f"/>
            </g>
            <g id="Group_39" data-name="Group 39" transform="translate(12.754 14.957)">
              <path id="Path_211" data-name="Path 211" d="M336.38,174.333a1.425,1.425,0,0,1-1.084-.5l-6.065-7.147a1.42,1.42,0,0,1,2.166-1.838l4.983,5.87,8.227-9.693a1.42,1.42,0,1,1,2.166,1.838l-9.31,10.97A1.423,1.423,0,0,1,336.38,174.333Z" transform="translate(-328.893 -160.522)" fill="#fff"/>
            </g>
          </g>
        </g>
      </g>
      <g id="Character" transform="translate(191.538 160.91)">
        <g id="Group_42" data-name="Group 42" transform="translate(0 71.361)">
          <path id="Path_212" data-name="Path 212" d="M391.825,423.169h7.16l-14.637-82.614h-7.16Z" transform="translate(-159.761 -263.162)" fill="#263238"/>
          <path id="Path_213" data-name="Path 213" d="M246.67,423.169h7.16l-14.637-82.614h-7.16Z" transform="translate(-171.99 -263.162)" fill="#263238"/>
          <path id="Path_214" data-name="Path 214" d="M391.825,423.169h7.16l-14.637-82.614h-7.16Z" transform="translate(-159.761 -263.162)" fill="#fff" opacity="0.3"/>
          <path id="Path_215" data-name="Path 215" d="M246.67,423.169h7.16l-14.637-82.614h-7.16Z" transform="translate(-171.99 -263.162)" fill="#fff" opacity="0.3"/>
          <rect id="Rectangle_26" data-name="Rectangle 26" width="215.932" height="7.251" transform="translate(228.326 125.95) rotate(180)" fill="#263238"/>
          <rect id="Rectangle_27" data-name="Rectangle 27" width="215.932" height="7.251" transform="translate(228.326 125.95) rotate(180)" fill="#fff" opacity="0.5"/>
          <path id="Path_216" data-name="Path 216" d="M330.35,423.169h-7.16l14.637-82.614h7.16Z" transform="translate(-164.31 -263.162)" fill="#263238"/>
          <path id="Path_217" data-name="Path 217" d="M185.195,423.169h-7.16l14.637-82.614h7.16Z" transform="translate(-176.539 -263.162)" fill="#263238"/>
          <path id="Path_218" data-name="Path 218" d="M330.35,423.169h-7.16l14.637-82.614h7.16Z" transform="translate(-164.31 -263.162)" fill="#fff" opacity="0.3"/>
          <path id="Path_219" data-name="Path 219" d="M185.195,423.169h-7.16l14.637-82.614h7.16Z" transform="translate(-176.539 -263.162)" fill="#fff" opacity="0.3"/>
          <path id="Path_220" data-name="Path 220" d="M244.521,342.746h7.125l11.926-66.3h-7.125Z" transform="translate(-170.938 -268.564)" fill="#263238"/>
          <path id="Path_221" data-name="Path 221" d="M244.521,342.746h7.125l11.926-66.3h-7.125Z" transform="translate(-170.938 -268.564)" fill="#fff" opacity="0.3"/>
          <path id="Path_222" data-name="Path 222" d="M375.006,342.746h7.125l11.926-66.3h-7.125Z" transform="translate(-159.945 -268.564)" fill="#263238"/>
          <path id="Path_223" data-name="Path 223" d="M309.763,342.746h7.125l11.926-66.3H321.69Z" transform="translate(-165.441 -268.564)" fill="#263238"/>
          <path id="Path_224" data-name="Path 224" d="M375.006,342.746h7.125l11.926-66.3h-7.125Z" transform="translate(-159.945 -268.564)" fill="#fff" opacity="0.3"/>
          <path id="Path_225" data-name="Path 225" d="M309.763,342.746h7.125l11.926-66.3H321.69Z" transform="translate(-165.441 -268.564)" fill="#fff" opacity="0.3"/>
          <path id="Path_226" data-name="Path 226" d="M233.171,281.585H420.28l2.232-12.409H235.4Z" transform="translate(-171.894 -269.176)" fill="#263238"/>
          <path id="Path_227" data-name="Path 227" d="M229.447,302.287H416.556l2.232-12.409H231.679Z" transform="translate(-172.208 -267.432)" fill="#263238"/>
          <path id="Path_228" data-name="Path 228" d="M225.723,322.989H412.833l2.232-12.409H227.956Z" transform="translate(-172.521 -265.688)" fill="#263238"/>
          <rect id="Rectangle_28" data-name="Rectangle 28" width="238.458" height="8.583" transform="translate(238.458 80.812) rotate(180)" fill="#263238"/>
          <path id="Path_229" data-name="Path 229" d="M233.171,281.585H420.28l2.232-12.409H235.4Z" transform="translate(-171.894 -269.176)" fill="#fff" opacity="0.5"/>
          <path id="Path_230" data-name="Path 230" d="M229.447,302.287H416.556l2.232-12.409H231.679Z" transform="translate(-172.208 -267.432)" fill="#fff" opacity="0.5"/>
          <path id="Path_231" data-name="Path 231" d="M225.723,322.989H412.833l2.232-12.409H227.956Z" transform="translate(-172.521 -265.688)" fill="#fff" opacity="0.5"/>
          <rect id="Rectangle_29" data-name="Rectangle 29" width="238.458" height="8.583" transform="translate(238.458 80.812) rotate(180)" fill="#fff" opacity="0.5"/>
          <rect id="Rectangle_30" data-name="Rectangle 30" width="179.91" height="8.583" transform="translate(179.91 80.812) rotate(180)" fill="#fff" opacity="0.2"/>
        </g>
        <g id="Group_54" data-name="Group 54" transform="translate(39.117)">
          <path id="Path_232" data-name="Path 232" d="M324.984,250.819s-16.208,17.575-20.639,16.9c-5.937-.9-18.874-16-18.874-16" transform="translate(-206.605 -199.361)" fill="none" stroke="#e9b376" stroke-linecap="round" stroke-linejoin="round" stroke-width="9.989"/>
          <path id="Path_233" data-name="Path 233" d="M325.728,245.249v15.537s-3.286,2.732-7.319,5.747c-2.018,1.507-4.219,3.079-6.278,4.413-3.135,2.038-5.954,3.535-7.385,3.448-4.271-.26-13.541-6.885-13.541-6.885L297.3,257.36s7,4.283,7.448,4.576S319.883,245.347,325.728,245.249Z" transform="translate(-206.121 -199.831)" fill="#27adb0"/>
          <path id="Path_234" data-name="Path 234" d="M316.784,265.495c-2.018,1.507-4.219,3.079-6.278,4.413.488-8.913,4.684-12.339,4.684-12.339A15.481,15.481,0,0,1,316.784,265.495Z" transform="translate(-204.495 -198.793)" opacity="0.2"/>
          <path id="Path_235" data-name="Path 235" d="M328.911,207.837c-7.481,6.105-6.6,23.669,1.809,35.2,0,0,17.955,1.5,27.926-2.96s-1.051-32.9-11.592-35.144A25.136,25.136,0,0,0,328.911,207.837Z" transform="translate(-203.374 -203.275)" fill="#263238"/>
          <path id="Path_236" data-name="Path 236" d="M329.1,226.177c-2.74-4.733-5.464-17.489,5.94-21.431,14.236-4.92,20.617,4.157,21.846,13.154s-3.839,15.8-13.248,15.124S331,229.45,329.1,226.177Z" transform="translate(-203.131 -203.36)" fill="#263238"/>
          <path id="Path_237" data-name="Path 237" d="M314.857,258.676c-1.392,6.577,1.047,22.083,1.449,33.769l33.523,3.864c.009-3.668.687-8.983,2.87-17.426,1.258-4.946,3.049-10.968,5.51-18.362.362-1.1.738-2.219,1.135-3.379a8.342,8.342,0,0,0-6.545-11.2c-1.4-.223-2.9-.421-4.429-.569a113.223,113.223,0,0,0-16.212-.861c-1.768.059-3.608.191-5.372.338C320.446,245.382,316.157,252.512,314.857,258.676Z" transform="translate(-204.165 -199.897)" fill="#263238"/>
          <g id="Group_43" data-name="Group 43" transform="translate(126.193 27.16)">
            <path id="Path_238" data-name="Path 238" d="M346.961,228.409c-1.688,5.139-3.929,14.6-.724,18.263,0,0-4.9-1-15.734,4.924-2.8-4.517-.475-5.784-.475-5.784,5.993-1.074,6.394-5.38,5.9-9.47Z" transform="translate(-329.121 -228.409)" fill="#ffbc96"/>
            <path id="Path_239" data-name="Path 239" d="M341.934,231.394l-6.531,4.692a16.053,16.053,0,0,1,.132,2.893c2.263-.2,5.626-2.469,6.16-4.774A7.816,7.816,0,0,0,341.934,231.394Z" transform="translate(-328.591 -228.158)" opacity="0.2"/>
          </g>
          <g id="Group_44" data-name="Group 44" transform="translate(121.726 2.777)">
            <path id="Path_240" data-name="Path 240" d="M349.52,218.248c.116,8.58.347,12.209-3.638,16.915-5.994,7.08-16.556,5.345-19.233-3.026-2.409-7.537-2.193-20.3,5.911-24.326A11.7,11.7,0,0,1,349.52,218.248Z" transform="translate(-324.974 -205.869)" fill="#ffbc96"/>
            <path id="Path_241" data-name="Path 241" d="M340.975,210.113c-2.379,2.981,3.04,12.371,7.307,13.972C356.58,221.349,348.075,201.217,340.975,210.113Z" transform="translate(-323.703 -205.758)" fill="#263238"/>
            <path id="Path_242" data-name="Path 242" d="M332.066,206.28c-3.154,1.388-6.116,7.318-6.5,9.534,4.689.351,16.775-5.071,16.775-5.071s8.518,1.569,3.936-2.28S332.066,206.28,332.066,206.28Z" transform="translate(-324.952 -205.921)" fill="#263238"/>
            <path id="Path_243" data-name="Path 243" d="M334.609,220.651c.052.7-.274,1.287-.729,1.321s-.865-.5-.917-1.2.274-1.287.729-1.321S334.557,219.956,334.609,220.651Z" transform="translate(-324.33 -204.781)" fill="#263238"/>
            <path id="Path_244" data-name="Path 244" d="M327.36,221.194c.052.7-.274,1.287-.729,1.321s-.865-.5-.917-1.2.274-1.287.729-1.321S327.308,220.5,327.36,221.194Z" transform="translate(-324.94 -204.736)" fill="#263238"/>
            <path id="Path_245" data-name="Path 245" d="M326.707,220.047,325,219.69S325.955,220.93,326.707,220.047Z" transform="translate(-325 -204.761)" fill="#263238"/>
            <path id="Path_246" data-name="Path 246" d="M330.473,221.9a18.626,18.626,0,0,1-2.146,4.624,3,3,0,0,0,2.513.28Z" transform="translate(-324.72 -204.575)" fill="#ed893e"/>
            <path id="Path_247" data-name="Path 247" d="M334.427,228.9a6.661,6.661,0,0,1-1.018.154.205.205,0,0,1-.22-.189.211.211,0,0,1,.189-.22,5.5,5.5,0,0,0,4.329-2.489.205.205,0,1,1,.36.2A5.74,5.74,0,0,1,334.427,228.9Z" transform="translate(-324.31 -204.226)" fill="#263238"/>
            <path id="Path_248" data-name="Path 248" d="M350.8,224.695a6.272,6.272,0,0,1-3,3.735c-1.935,1.044-3.385-.57-3.252-2.649.12-1.872,1.273-4.67,3.409-4.857A2.818,2.818,0,0,1,350.8,224.695Z" transform="translate(-323.353 -204.658)" fill="#fba371"/>
            <path id="Path_249" data-name="Path 249" d="M338.364,218.9a.408.408,0,0,1-.442-.186c-.979-1.623-3.411-1.815-3.435-1.817a.409.409,0,1,1,.059-.816c.117.009,2.882.229,4.077,2.21a.409.409,0,0,1-.139.563A.387.387,0,0,1,338.364,218.9Z" transform="translate(-324.233 -205.066)" fill="#263238"/>
            <path id="Path_250" data-name="Path 250" d="M325.6,217.876a.41.41,0,0,1-.376-.7,4.069,4.069,0,0,1,3.56-1.142.41.41,0,0,1-.184.8h0a3.247,3.247,0,0,0-2.809.936A.409.409,0,0,1,325.6,217.876Z" transform="translate(-324.992 -205.074)" fill="#263238"/>
            <path id="Path_251" data-name="Path 251" d="M333.956,219.5l-1.707-.356S333.2,220.387,333.956,219.5Z" transform="translate(-324.389 -204.807)" fill="#263238"/>
          </g>
          <path id="Path_252" data-name="Path 252" d="M305.733,249.149l.812,2.54a3.1,3.1,0,0,0,2.008,2.01l4.464,1.429a5.787,5.787,0,0,0,5.235-.879l.929-.7c-1.059-4.306-5.376-8.178-5.376-8.178l-1.108-1.24a2.581,2.581,0,0,0-3.66-.292l-2.486,2.164A2.973,2.973,0,0,0,305.733,249.149Z" transform="translate(-204.91 -200.002)" fill="#ffbc96"/>
          <path id="Path_253" data-name="Path 253" d="M278.047,251.3l.812,2.54a3.106,3.106,0,0,0,2.009,2.01l4.464,1.429a5.784,5.784,0,0,0,5.235-.879l.928-.7c-1.059-4.306-5.376-8.178-5.376-8.178l-1.107-1.24a2.581,2.581,0,0,0-3.66-.292l-2.487,2.164A2.973,2.973,0,0,0,278.047,251.3Z" transform="translate(-207.243 -199.821)" fill="#fba371"/>
          <path id="Path_254" data-name="Path 254" d="M337.835,264.3c2.156,6.353,7.659,11.092,12.929,13.895,1.258-4.946,3.049-10.968,5.51-18.362-3.3-4.624-7.937-7.908-13.827-7.02C342.446,252.81,335.651,257.863,337.835,264.3Z" transform="translate(-202.23 -199.206)" fill="#27adb0" opacity="0.2"/>
          <g id="Group_45" data-name="Group 45" transform="translate(16.629 95.336)">
            <path id="Path_255" data-name="Path 255" d="M228.07,387.1l5.657,2.285s48.1-72.543,52.545-69.817c16.123,9.876,49.267,27.527,64.954,16.838s6.374-38.87,6.374-38.87-30.5-10.707-34.273-4.086a50.488,50.488,0,0,0-2.592,6.1c-.788,2.1-1.4,3.87-1.4,3.87a.034.034,0,0,1-.018-.015c-.923-.438-30.825-14.822-44.908-8.9C260.107,300.534,228.07,387.1,228.07,387.1Z" transform="translate(-228.07 -291.288)" fill="#ffbc96"/>
          </g>
          <path id="Path_256" data-name="Path 256" d="M329,338.418s-15.127.989-35.845-6.051c0,0-5.108,57.77-8.536,89.121l-6.949-.978s-11.805-85.582-9.47-96.017,14.964-11.119,14.964-11.119S307.336,331.114,329,338.418Z" transform="translate(-208.086 -194.091)" fill="#ffbc96"/>
          <path id="Path_257" data-name="Path 257" d="M326.6,337.4c-.337-.067-15.127.552-30.255-3.74l1.968-8.22C305.938,330.463,316.555,333.527,326.6,337.4Z" transform="translate(-205.689 -193.074)" fill="#407bff"/>
          <path id="Path_258" data-name="Path 258" d="M326.6,337.4c-.337-.067-15.127.552-30.255-3.74l1.968-8.22C305.938,330.463,316.555,333.527,326.6,337.4Z" transform="translate(-205.689 -193.074)" fill="#ffb484"/>
          <path id="Path_259" data-name="Path 259" d="M297.122,324.654l-1.814,9.147,2.76.94,2.121-8.075Z" transform="translate(-205.776 -193.141)" fill="#407bff"/>
          <path id="Path_260" data-name="Path 260" d="M297.122,324.654l-1.814,9.147,2.76.94,2.121-8.075Z" transform="translate(-205.776 -193.141)" fill="#27adb0" style="isolation: isolate"/>
          <path id="Path_261" data-name="Path 261" d="M270.7,360.876c-1.094-22.734-1.562-34.524,2.177-39.225a16.515,16.515,0,0,1,9.6-5.549c4.853,12.306,26.049,19.987,26.6,20.193l.011,0c7.908,1.643,19.618,2.064,19.9,2.121a78.066,78.066,0,0,1-28.287-11.959,177.911,177.911,0,0,1-17.553-13.083s-12.628.685-14.964,11.119c-.952,4.267.461,21.1,2.454,39.517A27.725,27.725,0,0,0,270.7,360.876Z" transform="translate(-208.086 -194.091)" fill="#fba371" style="isolation: isolate"/>
          <g id="Group_46" data-name="Group 46" transform="translate(10.901 183.292)">
            <path id="Path_262" data-name="Path 262" d="M222.862,375.5a.917.917,0,0,1,.216-1.022,1.023,1.023,0,0,1,.735-.373,3.893,3.893,0,0,1,2.043.684c-.531-.7-.938-1.444-.755-1.913.12-.3.425-.461.908-.466a1.462,1.462,0,0,1,1.136.488c.949,1.029.747,3.382.737,3.492a.262.262,0,0,1-.037.111.259.259,0,0,1-.041.05.234.234,0,0,1-.08.051h0a.265.265,0,0,1-.089.017,16.307,16.307,0,0,1-3.024-.234C223.793,376.224,223.081,375.953,222.862,375.5Zm1-.893a.529.529,0,0,0-.387.189c-.244.3-.178.439-.155.485.254.525,2.064.78,3.592.828C226.035,375.444,224.65,374.534,223.857,374.607Zm2.155-1.693c-.144,0-.394.023-.442.147-.158.4.771,1.647,1.831,2.727a4.163,4.163,0,0,0-.628-2.55.959.959,0,0,0-.529-.3A1.068,1.068,0,0,0,226.013,372.914Z" transform="translate(-222.786 -372.41)" fill="#263238"/>
          </g>
          <g id="Group_47" data-name="Group 47" transform="translate(62.508 217.165)">
            <path id="Path_263" data-name="Path 263" d="M270.673,407.954a.919.919,0,0,1-.244-1.016,1.021,1.021,0,0,1,.5-.652,3.916,3.916,0,0,1,2.139-.26c-.782-.406-1.469-.9-1.5-1.4-.022-.326.186-.6.619-.811a1.47,1.47,0,0,1,1.235-.049c1.3.524,2.129,2.738,2.166,2.839a.238.238,0,0,1,.014.117h0a.23.23,0,0,1-.013.054h0a.261.261,0,0,1-.117.136h0l-.009,0a11.8,11.8,0,0,1-3.976,1.259A1.288,1.288,0,0,1,270.673,407.954Zm.515-1.234a.527.527,0,0,0-.269.336c-.091.376.029.473.068.5.453.364,2.2-.183,3.6-.795C273.514,406.541,271.873,406.315,271.189,406.72Zm1.22-2.455c-.13.063-.347.19-.337.323.029.429,1.4,1.156,2.826,1.676a4.165,4.165,0,0,0-1.662-2.034.971.971,0,0,0-.826.035Z" transform="translate(-270.384 -403.651)" fill="#263238"/>
          </g>
          <path id="Path_264" data-name="Path 264" d="M238.589,379.832c.309-.715-8.622-4.161-8.622-4.161s-7.841,2.968-13.59,1.8-4.285,3.277,1.51,5.949l14.336,6.612C236.341,391.926,235.385,387.231,238.589,379.832Z" transform="translate(-212.733 -188.843)" fill="#263238"/>
          <path id="Path_265" data-name="Path 265" d="M286.737,405.588c-.028-.777-9.575-.053-9.575-.053s-5.805,6.049-11.5,7.461-2.462,4.8,3.92,4.723l15.786-.189C289.9,417.475,287.022,413.646,286.737,405.588Z" transform="translate(-208.522 -186.353)" fill="#263238"/>
          <g id="Group_48" data-name="Group 48" transform="translate(95.157 95.336)">
            <path id="Path_266" data-name="Path 266" d="M351.5,297.535s-30.5-10.707-34.273-4.086a50.539,50.539,0,0,0-2.592,6.1c-.788,2.1-1.394,3.871-1.394,3.871a.034.034,0,0,1-.02-.015l-2.5-1.147-10.222,30.5c16.247,9.012,39.223,10.06,48.631,3.648C364.811,325.728,351.5,297.535,351.5,297.535Z" transform="translate(-300.496 -291.288)" fill="#ffb484"/>
          </g>
          <path id="Path_268" data-name="Path 268" d="M312.247,302.776l17.6,7.467s-9.036-7.618-16.208-11.337C312.854,301,312.247,302.776,312.247,302.776Z" transform="translate(-204.349 -195.31)" opacity="0.3" style="isolation: isolate"/>
          <g id="Group_51" data-name="Group 51" transform="translate(111.451 90.805)">
            <path id="Path_269" data-name="Path 269" d="M315.524,294.64l.616-7.531,34.092,4.531.452,7.269Z" transform="translate(-315.524 -287.109)" fill="#f4721f"/>
            <path id="Path_270" data-name="Path 270" d="M315.524,294.64l.616-7.531,34.092,4.531.452,7.269Z" transform="translate(-315.524 -287.109)" fill="#fff" opacity="0.4"/>
            <g id="Group_50" data-name="Group 50" transform="translate(0.436 0.738)">
              <path id="Path_271" data-name="Path 271" d="M316.175,287.789l1.778.26-.553,5.866-1.475-.174Z" transform="translate(-315.925 -287.789)" fill="#263238"/>
              <path id="Path_272" data-name="Path 272" d="M319.4,288.249l19.224,2.8-.5,5.335-19.267-2.3Z" transform="translate(-315.679 -287.751)" fill="#263238"/>
              <path id="Path_273" data-name="Path 273" d="M348.322,297.554l-10.127-1.2.488-5.291h.011l9.14,1.323Z" transform="translate(-314.049 -287.514)" fill="#263238"/>
              <path id="Path_274" data-name="Path 274" d="M316.175,287.789l1.778.26-.553,5.866-1.475-.174Z" transform="translate(-315.925 -287.789)" opacity="0.2" style="isolation: isolate"/>
              <path id="Path_275" data-name="Path 275" d="M319.4,288.249l19.224,2.8-.5,5.335-19.267-2.3Z" transform="translate(-315.679 -287.751)" opacity="0.2" style="isolation: isolate"/>
              <path id="Path_276" data-name="Path 276" d="M348.322,297.554l-10.127-1.2.488-5.291h.011l9.14,1.323Z" transform="translate(-314.049 -287.514)" opacity="0.2" style="isolation: isolate"/>
            </g>
            <rect id="Rectangle_31" data-name="Rectangle 31" width="7.555" height="5.73" rx="0.937" transform="translate(15.212 8.638) rotate(-172.459)" fill="none" stroke="#fff" stroke-linecap="round" stroke-linejoin="round" stroke-width="1"/>
            <line id="Line_11" data-name="Line 11" x2="1.93" y2="0.305" transform="translate(12.66 5.303)" fill="none" stroke="#fff" stroke-linecap="round" stroke-linejoin="round" stroke-width="1"/>
          </g>
          <g id="Group_52" data-name="Group 52" transform="translate(93.075 104.194)">
            <path id="Path_277" data-name="Path 277" d="M309.418,299.458l2.843,1.5-9.639,32.763-4.047-.8Z" transform="translate(-298.576 -299.458)" fill="#407bff"/>
            <path id="Path_278" data-name="Path 278" d="M309.418,299.458l2.843,1.5-9.639,32.763-4.047-.8Z" transform="translate(-298.576 -299.458)" fill="#27adb0" style="isolation: isolate"/>
          </g>
          <g id="Group_53" data-name="Group 53" transform="translate(72.613 36.062)">
            <path id="Path_279" data-name="Path 279" d="M308.735,271.673H284.847A1.857,1.857,0,0,1,283.036,270l-3.326-31.7a1.509,1.509,0,0,1,1.522-1.675H305.12a1.858,1.858,0,0,1,1.811,1.675l3.326,31.7A1.509,1.509,0,0,1,308.735,271.673Z" transform="translate(-279.703 -236.62)" fill="#263238"/>
            <path id="Path_280" data-name="Path 280" d="M308.735,271.673H284.847A1.857,1.857,0,0,1,283.036,270l-3.326-31.7a1.509,1.509,0,0,1,1.522-1.675H305.12a1.858,1.858,0,0,1,1.811,1.675l3.326,31.7A1.509,1.509,0,0,1,308.735,271.673Z" transform="translate(-279.703 -236.62)" fill="#fff" opacity="0.6"/>
            <path id="Path_281" data-name="Path 281" d="M307.736,271.673h-22.89A1.857,1.857,0,0,1,283.036,270l-3.326-31.7a1.509,1.509,0,0,1,1.522-1.675h22.89a1.857,1.857,0,0,1,1.811,1.675l3.326,31.7A1.509,1.509,0,0,1,307.736,271.673Z" transform="translate(-279.703 -236.62)" fill="#fff" opacity="0.2"/>
            <path id="Path_282" data-name="Path 282" d="M292.9,250.394a2.335,2.335,0,0,0-2.356,2.592,2.876,2.876,0,0,0,2.8,2.592,2.335,2.335,0,0,0,2.356-2.592A2.876,2.876,0,0,1,292.9,250.394Z" transform="translate(-278.791 -235.46)" fill="#263238"/>
            <path id="Path_283" data-name="Path 283" d="M298.634,239.138H286.017a1.673,1.673,0,0,1-1.48-.953l-.757-1.565h16.656l-.486,1.565A1.353,1.353,0,0,1,298.634,239.138Z" transform="translate(-279.36 -236.62)" opacity="0.3"/>
          </g>
          <path id="Path_284" data-name="Path 284" d="M354.857,310.976h-4.434s-5.54-16.632-8.772-30.728a102.245,102.245,0,0,1-2.071-11.309,32.419,32.419,0,0,1,1.073-12.556A31.453,31.453,0,0,1,346.27,245.3l-.9-.054c8.393-.087,12.925,2.819,13.488,8.045s-8.716,36.236-9.151,40.377S354.857,310.976,354.857,310.976Z" transform="translate(-202.063 -199.831)" fill="#27adb0"/>
          <path id="Path_285" data-name="Path 285" d="M328.392,244.708s-8.873,13.985-11.251,19.934-1.014,22.961-1.014,22.961-4.542-20.477-1.619-30.629S322.481,244.737,328.392,244.708Z" transform="translate(-204.241 -199.876)" fill="#27adb0"/>
          <path id="Path_286" data-name="Path 286" d="M354.139,253.709S341,273.255,334.994,270.944c-7.684-2.956-19.47-19.292-19.47-19.292" transform="translate(-204.073 -199.291)" fill="#263238" stroke="#ffbc96" stroke-linecap="round" stroke-linejoin="round" stroke-width="9.989"/>
          <path id="Path_287" data-name="Path 287" d="M355.443,260.843s-7.806,13.315-13.791,18.964a102.245,102.245,0,0,1-2.071-11.309,32.419,32.419,0,0,1,1.073-12.556c2.482-2.038,4.933-4.066,6.18-5.1C349.913,248.276,355.443,260.843,355.443,260.843Z" transform="translate(-202.063 -199.388)" opacity="0.2"/>
          <path id="Path_288" data-name="Path 288" d="M357.314,248.747c4.085,2.2,2.848,8.108-2.508,15.114s-15.049,16.468-20.14,14.739-10.853-8.5-10.853-8.5l3.712-10.494s7.3,5.541,8.824,5.254,8.952-9.9,11.1-12.887S352.882,246.359,357.314,248.747Z" transform="translate(-203.374 -199.614)" fill="#27adb0"/>
          <path id="Path_289" data-name="Path 289" d="M284.824,249.475l-.155,2.081a2.388,2.388,0,0,1-2.03,2.184l-2.829.42.669-7.634,2.363.42A2.388,2.388,0,0,1,284.824,249.475Z" transform="translate(-207.082 -199.723)" fill="#ffbc96"/>
        </g>
      </g>
    </g>
  </g>
</svg>
